<svg height="496pt" viewBox="0 0 496 496" width="496pt" xmlns="http://www.w3.org/2000/svg"><path d="m64 416h-27.726562c-8.664063-10.425781-15.722657-22.167969-20.839844-34.976562l-14.859375 5.945312c5.753906 14.398438 13.691406 27.589844 23.425781 39.296875v13.734375c0 30.878906 25.121094 56 56 56h40v-24c0-30.878906-25.121094-56-56-56zm40 64h-24c-21.0625 0-38.191406-16.414062-39.703125-37.105469 4.773437 4.167969 9.78125 8.097657 15.117187 11.65625l12.152344 8.105469 8.875-13.3125-12.152344-8.105469c-4.265624-2.839843-8.265624-5.964843-12.121093-9.238281h11.832031c22.054688 0 40 17.945312 40 40zm0 0"/><path d="m472 0c-30.878906 0-56 25.121094-56 56v27.726562c-10.425781 8.664063-22.167969 15.722657-34.976562 20.839844l5.945312 14.859375c14.390625-5.761719 27.582031-13.691406 39.289062-23.433593h13.742188c30.878906 0 56-25.121094 56-56v-39.992188zm8 40c0 21.0625-16.414062 38.191406-37.105469 39.703125 4.167969-4.773437 8.097657-9.78125 11.65625-15.117187l8.105469-12.152344-13.3125-8.875-8.105469 12.152344c-2.839843 4.265624-5.964843 8.265624-9.238281 12.121093v-11.832031c0-22.054688 17.945312-40 40-40h8zm0 0"/><path d="m15.433594 114.976562c5.117187-12.808593 12.175781-24.550781 20.839844-34.976562h27.726562c30.878906 0 56-25.121094 56-56v-24h-40c-30.878906 0-56 25.121094-56 56v13.734375c-9.734375 11.707031-17.671875 24.898437-23.433594 39.289063zm64.566406-98.976562h24v8c0 22.054688-17.945312 40-40 40h-11.832031c3.855469-3.273438 7.855469-6.398438 12.113281-9.238281l12.152344-8.105469-8.875-13.3125-12.152344 8.105469c-5.335938 3.558593-10.34375 7.488281-15.117188 11.65625 1.519532-20.691407 18.648438-37.105469 39.710938-37.105469zm0 0"/><path d="m215.382812 207.441406 1.226563 15.949219c29.636719-2.277344 50.558594-10.964844 62.191406-25.816406 10.246094-13.085938 9.558594-26.652344 9.183594-30.085938-.265625-21.824219-18.097656-39.488281-39.984375-39.488281-13.230469 0-24 10.769531-24 24s10.769531 24 24 24h8v-16h-8c-4.40625 0-8-3.59375-8-8s3.59375-8 8-8c13.230469 0 24 10.769531 24 24l.097656 1.222656c.054688.386719 1.253906 9.601563-6.121094 18.785156-8.703124 10.832032-26.199218 17.550782-50.59375 19.433594zm0 0"/><path d="m65.007812 284.113281 13.976563 7.78125c.359375-.636719 36.625-63.824219 113.421875-67.710937l-.8125-15.976563c-85.875 4.34375-124.960938 72.984375-126.585938 75.90625zm0 0"/><path d="m414.152344 160c-38.679688 0-70.152344 31.472656-70.152344 70.152344v5.847656c0 24.265625 19.734375 44 44 44s44-19.734375 44-44h-16c0 15.441406-12.558594 28-28 28s-28-12.558594-28-28v-5.847656c0-29.855469 24.296875-54.152344 54.160156-54.152344 36.304688 0 65.839844 29.535156 65.839844 65.847656 0 11.738282-3.03125 23.113282-8.777344 32.886719-9.984375 17-29.054687 37.265625-63.222656 37.265625-27.769531 0-52.175781-6.175781-80.449219-13.335938-12.015625-3.039062-24.453125-6.191406-37.894531-9.03125l-3.3125 15.65625c13.136719 2.773438 25.410156 5.878907 37.28125 8.886719 28.085938 7.105469 54.613281 13.824219 84.375 13.824219 41.726562 0 64.921875-24.558594 77.015625-45.160156 7.183594-12.230469 10.984375-26.40625 10.984375-41 0-45.128906-36.710938-81.839844-81.847656-81.839844zm0 0"/><path d="m41.089844 379.96875 13.8125 8.0625c.546875-.910156 54.945312-92.03125 145.097656-92.03125 16.070312 0 31.472656.894531 47.0625 2.734375l1.875-15.886719c-16.226562-1.917968-32.234375-2.847656-48.9375-2.847656-99.457031 0-156.527344 95.886719-158.910156 99.96875zm0 0"/><path d="m376 352c-22.054688 0-40 17.945312-40 40h16c0-13.230469 10.769531-24 24-24s24 10.769531 24 24c0 1.632812-.542969 40-48 40-34.585938 0-49.039062-12.425781-96.929688-53.601562l-9.863281-8.46875c-59.101562-50.65625-117.878906-26.335938-120.359375-25.28125l6.28125 14.710937c2.117188-.886719 52.367188-21.261719 103.664063 22.710937l9.847656 8.457032c48.640625 41.824218 66.847656 57.472656 107.359375 57.472656 63.273438 0 64-55.441406 64-56 0-22.054688-17.945312-40-40-40zm0 0"/><path d="m344 112h16v16h-16zm0 0"/><path d="m48 304h16v16h-16zm0 0"/><path d="m424 464h16v16h-16zm0 0"/><path d="m464 336h16v16h-16zm0 0"/><path d="m112 128h16v16h-16zm0 0"/><path d="m240 0h16v16h-16zm0 0"/><path d="m0 216h16v16h-16zm0 0"/></svg>