<?xml version="1.0" encoding="utf-8"?>
<!-- Generator: Adobe Illustrator 19.2.1, SVG Export Plug-In . SVG Version: 6.00 Build 0)  -->
<svg version="1.1" id="Layer_1" xmlns="http://www.w3.org/2000/svg" xmlns:xlink="http://www.w3.org/1999/xlink" x="0px" y="0px"
	 viewBox="0 0 500 500" style="enable-background:new 0 0 500 500;" xml:space="preserve">
<style type="text/css">
	.st0{fill:#231F20;}
</style>
<g>
	<path class="st0" d="M14.2,399C14.1,399.8,14.2,400.2,14.2,399L14.2,399z"/>
	<path class="st0" d="M243.9,11.6c0.2,0,0.3,0,0.6,0c0.4-0.4,0.8-0.7,1.2-1L243.9,11.6z"/>
	<path class="st0" d="M338,14.1c0.2,0,0.4,0.1,0.6,0.1C338.6,14,338.7,13.7,338,14.1z"/>
	<path class="st0" d="M15,18.3c0,1.4,0.1,2.2,0.2,2.9C15.1,20.3,15,19.4,15,18.3z"/>
	<path class="st0" d="M125.4,487.4c0,0-0.2,0-0.4,0c0.3,0.1,0.7,0.1,1,0.2L125.4,487.4z"/>
	<path class="st0" d="M123.5,488.1c-2.1-0.3,0.6-0.6,1.5-0.6c-2.3-0.5-4.6-0.6-6.9-0.3C118.1,487.8,122.5,487.7,123.5,488.1z"/>
	<path class="st0" d="M438.2,485.7l-0.9,0.2C437.6,485.9,437.9,485.8,438.2,485.7z"/>
	<path class="st0" d="M46.4,45.6c0,0.1-0.1,0.1-0.1,0.1C46.4,45.8,46.4,45.7,46.4,45.6z"/>
	<path class="st0" d="M388.8,485.1l-0.5,1C388.7,485.7,388.8,485.4,388.8,485.1z"/>
	<path class="st0" d="M245.7,10.6l0.7-0.4C246.1,10.3,245.9,10.4,245.7,10.6z"/>
	<path class="st0" d="M425,14.7c0,0.3,0.2,0.5,0.5,0.7c0.1,0,0.2,0,0.2,0L425,14.7z"/>
	<path class="st0" d="M473.5,417.8c0.1,0,0.2-0.1,0.4-0.2l-0.7-1.7C473.2,416.7,473.3,417.3,473.5,417.8z"/>
	<path class="st0" d="M484.8,98.8c0.1,0.1,0.2,0.4,0.3,0.4c0.3-2,0.4-7.4,0.4-14.3l-1.2-0.4L484.8,98.8z"/>
	<path class="st0" d="M456.8,229.2l2.4-12.7c1.1,40.8-1.3,59.8,0.6,94.8l-0.5-1.9c-0.6,5.1,4.9,8-1.8,64.1h-0.2
		c0,1.9,0.5,1.9-0.1,5.8l1.5-9.7c0.6,5.8,1.8,10.9,1.9,18.7c-0.3,1.6-0.8,2.2-1.2,2.4l0.4,19l-1.6,5.8c0.8,5.8,4.1,3.2,2.3,18.7
		c2.3-5.9,1.4,7.7,2.5,5.8c-0.3,0.8-0.7,2.6-1.1,4c0.3,9.2,0.9,26.7,2.1,31c0,0,4.8-36.2,7.3-45.9c-0.6,13,0.3,3.4,1,0.9l-0.6-0.9
		c0.6-7.8,2-7.8,2.4-11.7c-0.1,0-0.3,0.1-0.4,0.2l0.2,0.5c-0.3,0.4-0.4,0.2-0.6-0.3c-0.3,0.1-0.6-0.3-0.5-2.4l0.2,0.4
		c-0.2-3.3,0-8.9,0.1-11.3l1.2,0c-2.3-5.8,3.5-38.9,3.6-46.6c1.5-7.8-0.4-17.5,0.4-27.2c0.4-15.5,1.8-7.8,2.8-15.5
		c0.8-9.7-1.4,2-1.5-1.9l1.7-11.7c0.1,6.8,0.9,3.1,1.3,1.9c0.2-10.1,2.4-26,0-29.1c1.2-13.6,2.1-13.6,2.2-19.5
		c-0.4,2-0.8,5.8-1.3,5.9c1.1-5.4-0.3-2.6-0.5-0.4c-1-8.3,4.4-43.1,1.7-44.8h0.5c-2-1.9-3.9,1.2-5-4.6l0.9-3.9l-0.8-5.8
		c0.6-3.9,1.2-2,1.4-2c-0.9-9.5,0.2-22.7,0.4-34.2L477,177c1.2-9.7,3.8-27.2,2-29.1l1.8-5.8c3.4-19.5-1.5-13.6-0.5-21.3l2-9.8l0,9.7
		c1-9.7,1.6-13.6,2.9-21.4c0,0,0-0.1-0.1-0.1c-0.1,0.5-0.2,0.9-0.3,1l0-1.4c-1-1.2-1.7-6.2-1.6-13.1c0.3-9.7-1.2-17.3,0.9-32.9
		l-2-3.9c0,0.4,0.3-3.8,0.6-8c0.3-4.3,0.6-8.6,0.6-8.6l1.6-0.9c0,4.4,0,9.8,0,15.7c0.1,4,0.1,8.4,0.2,12.8c0.2,8.6,0.3,17.7,0.4,25
		l0.7,0.3c0-8.7-0.7-18.6-0.6-24.4c0.3-2.8,2-10,3.1-4.8l-1.6-5.4c0-7.5-0.1-13.8-0.1-19.1c0-5.8,0-10.6,0-14.9
		c-9.2,0-16.5-0.1-25.9-0.4c-1.2,0-2.4-0.1-3.6-0.1c-0.6,0-1.3,0-1.9-0.1c-0.4,0-0.9,0-1.3-0.1c-1.6-0.1-3.3-0.2-5.1-0.3
		c-3.6-0.2-7.8-0.5-12.9-0.8l2.6,0.8c-6,0.5-12,0.9-13.7-0.4c-18.2-0.3-37.1-1.3-48.9-3.3l-2.6,1.9c-3.8-0.1-9.6-3-11.5-0.3
		l-8.2,0.8c-5.3-0.1-8.5,0.9-14.5-0.1v0c0,0,0,0,0,0c-0.4-0.1-0.8-0.1-1.1-0.2c0,0.1,0,0.1,0.1,0.2c-11.9-0.8,0.1,1.7-13.5,0.6
		c-4.4-1.3-4.8,2.4-11.5,2l-6.7-2.7c-12-1.6-14.1,1.2-31.5,1.2c-8.4-1-12.4-3.3-6.9-5.3c-7.6,2.5-3.5,1.6-13.6,2.8
		c-1.6-1-0.5-1.2,1.8-2.2c-9-1.2-5.5,0.9-12.3,0.9c-2,1.9-4.2,5-6.4,5.1l2.6,0.6c-7.2,1-15,1.5-23.3,0.5l0.3-1l-8.9,0.5l-0.6-1.2
		l-12.7,0.4l1.7,0.3c-3,0.2-12.7,0.6-18.3-0.1l0.2-0.7c-15.8-2.1-28.7,0.7-47.2,0.9l2.4-1.4c-6.3-1.4-1.7,2.2-9.2,1.5l-0.4-1.7
		c-6.6,2.3-8.5-0.5-13.1-1.3l2.1,2.3l-8.6-0.5c-9.4-0.7-5.8-2.8-4.4-4l-6.4,1.8l-1.3-2c-4.7,2.3-4.7-0.4-12.9,0.9
		c-0.7-0.8,1.4-1.2-1.4-1.5l-13.5,2.8l8.2-1.2l-1,2.9C64.1,17.6,61.1,15,55,15.8l4.2-0.9c-5,0.4-7.6,0.2-9.6-0.1
		c-0.5-0.1-1-0.2-1.5-0.3c-0.8-0.1-1.7-0.2-2.5-0.3c-1.8-0.2-3.7-0.4-6.3-0.6c3.3,0.5,7.9,1.3,1.1,1.7c-5,0.2-3-1-8.1-1.3
		c-0.1,0.8-2.1,1.4-4.9,1.8c-2.9,0.4-6.7,0.6-11,0.6c0,2.1-0.1,4.2-0.3,6.3c-0.3-0.4-0.5-0.8-0.7-1.7c0.3,3.1,0.8,4.8,0.3,9.4
		c0,0-0.5-1-1.1-2.1c-0.5-1.1-1.1-2.2-1.1-2.2s0.5,2.7,1,5.5c0.5,2.6,1,5.2,1,5.2c-0.3,3-0.1,7,0.1,9.9c0.1,1.7,0.1,2.1,0,2.7
		c-0.1,0.5-0.2,0.7-0.6,0.6c0,0-0.1-0.5-0.2-1c-0.1-0.3-0.1-0.5-0.1-0.7c0-0.1,0-0.2,0-0.3c0-0.1,0-0.2,0-0.2L14,76l-1.7,0.4
		c2.4,2.8-0.9,15.2,2.1,14.3c-1.6,5.3,1.1,20.7-2.2,17.6c-0.3,18.3,3,28.2,1.3,50.4c-2.8,7.9-1.9,29.6-2.2,43.9
		c1.2,27.9,2.2,45.9,3.2,74.5c-4,17.2,1.4,42.8-0.9,61.3l1.6,5.1c-2.5,12.3,0.6,31-1.9,48.2c0.7,4.2,0.9,6.4,1,7.4
		c0.1-0.8,0.4-2,1.4-2.3c-0.7,4.9,0.2,14.9-1.8,14.2l-0.2-1.2c-2-0.7,0.9,14.9-0.8,20.4l2.1-3l-0.4,9.3l-0.4-2.5
		c0.5,4.1,0.8,8,1.1,11.7c0.1,1.8,0.2,3.6,0.3,5.4c0,0.9,0.1,1.7,0.1,2.6c0,0.4,0,0.9,0,1.3c0,0.5,0,1,0,1.5
		c0.2,11.3,0.1,21.6-0.1,31.8c13.2,0.3,25.6,0.5,39.1,0.8c8.9,0.1,18.5-0.2,29.7-1.5c-5,2.3,7.5-1.2,8,1.3
		c9.6,3.2,17.7-0.7,25.6-1.5c0-0.1,0.1-0.3,0.5-0.5l13.7,0.3c-8.2,3.2,9.9-2.7,2.4,0.1c35.8,2.4,82.5,0,124,1.1l-1.8-0.8
		c10.5,0.2,23.6-0.8,31.6,0.5c8,1.3,17.4-2.1,20.5-2.2c8.7-1.4,16.7,1.4,12.9,1.3c9.3-0.4,18.1-3.3,31.1-2.1
		c4.4,2.7,35.4-2.7,35.8,0.4l0.1-0.3c16.6,2.2,32.3-1.5,50.2,0.4c0,0-0.3,0.2-0.9,0.4l36.4-9.3l-10.4-10.3l-31.6-8.3l-85.5,1.8
		l-68.3-3.3l-166.1,1.1l-11.9,2.3c-10.8-1.3-22.5-1.7-34.7-1.7c-3,0-6.1,0-9.2,0c-3,0-6,0.1-9,0.1c-0.8,0.1-1.7,0.2-2.7,0.3
		c-0.1-0.9-0.1-1.9,0.1-2.8c0.1-6.3,0.4-12.5,0.9-18.5l-2-0.7c-0.1-9.9,1.1-9.2,1.5-11.7c-0.4-92.2-3.1-187.2-0.6-270.2
		c1.3-8,0.5-32.3,1.9-38.6c-1.2-13.5-1.8-27.4-2.1-41.2c-0.1-6.9-0.2-13.9-0.2-20.8c0-1.7,0-3.4,0-5.2l0-0.8l0-0.4
		c0-0.6,0.1-1.1,0.1-1.6l0.2,0.3l-0.2-1l1-0.2c0.2,0.2,0.3,0.4,0.4,0.6c0.1-0.2,0.4-0.4,0.7-0.5c0.2-0.1,0.3-0.1,0.5-0.1l0.3,0
		l0.1,0c0,0,0,0,0.1,0l0.4,0c4.4-0.1,9.1,0,13.9,0.2c9.6,0.3,19.7,0.9,28.4,1.3l-1,0.2C192.3,46.9,287.4,43.2,389,46
		c13.3,0.9,27.2,1.2,41.5,1.2c7.2,0,14.4,0,21.8-0.1l2.8,0l0.3,0l0,0l0,0l0.1,0l0.4-0.1l1-0.2c0.1,0.4,0.2,0.9,0.2,1.4l0,0.1l0,0.1
		l0,0.6l0,2.2l0,4.4c0,2.9,0,5.9,0,8.9c-0.1,11.8-0.3,23.7-0.9,35.5C454.3,109.9,455.8,219.5,456.8,229.2z"/>
	<path class="st0" d="M459.4,390.6l0-0.4C458.6,390.2,458.9,390.8,459.4,390.6z"/>
	<path class="st0" d="M482.4,164.1c0,0.2,0,0.5,0,0.7l1.2-2.7L482.4,164.1z"/>
	<path class="st0" d="M483.1,309.2c0.3-6.5,0.1-6.8-0.3-5.9C482.7,305.6,482.8,307.7,483.1,309.2z"/>
	<path class="st0" d="M461,443.8c-0.1,3.4,0.4,2.1,1,0.1c-0.1-3.5-0.2-5.9-0.2-5.9C461.7,439.9,461.2,441.9,461,443.8z"/>
	<path class="st0" d="M472.4,429.9l0.7,1.1C472.9,428.9,472.7,429,472.4,429.9z"/>
</g>
<g>
	<line class="st0" x1="250" y1="72.7" x2="250" y2="427.3"/>
	<g>
		<path class="st0" d="M264.7,176.4C264.7,176.3,264.6,176.2,264.7,176.4L264.7,176.4z"/>
		<path class="st0" d="M267.6,292.8c0,0,0,0.1,0,0.1c0.4,0.1,0.7,0.2,1,0.2L267.6,292.8z"/>
		<path class="st0" d="M265.1,311.5c0,0-0.1,0.1-0.1,0.1C265.2,311.6,265.5,311.6,265.1,311.5z"/>
		<path class="st0" d="M263.9,249.7c0-0.2-0.1-0.3-0.2-0.3C263.8,249.4,263.8,249.5,263.9,249.7z"/>
		<path class="st0" d="M262.5,142.1C262.5,142.1,262.6,142.2,262.5,142.1c0.1,0,0.2-0.1,0.3-0.1L262.5,142.1z"/>
		<path class="st0" d="M263.2,142.5c-0.3,0.4-0.6-0.1-0.6-0.3c-0.5,0.5-0.6,0.9-0.3,1.4C262.9,143.6,262.8,142.7,263.2,142.5z"/>
		<path class="st0" d="M260.8,79.9l0.2,0.2C261,80.1,260.9,80,260.8,79.9z"/>
		<path class="st0" d="M233.6,251.5c-0.1-0.1-0.1-0.2-0.1-0.3C233.4,251.4,233.5,251.4,233.6,251.5z"/>
		<path class="st0" d="M260.2,89.8l1,0.1C260.8,89.8,260.5,89.8,260.2,89.8z"/>
		<path class="st0" d="M268.6,293.1l0.4,0.1C268.9,293.2,268.8,293.2,268.6,293.1z"/>
		<path class="st0" d="M264.5,328.8c-0.3,0-0.5,0-0.7,0.1c0,0,0,0,0,0L264.5,328.8z"/>
		<path class="st0" d="M248.9,415.9c0.1,0,0.2,0,0.4,0l-0.7-0.3C248.6,415.7,248.7,415.9,248.9,415.9z"/>
		<path class="st0" d="M260.2,352.5c0.1,0,0.2,0.1,0.3,0.1c0.3-0.4,0.4-1.5,0.4-2.8l-1.2-0.1L260.2,352.5z"/>
		<path class="st0" d="M232.2,378.4l2.4-2.5c1.1,8.1-1.3,11.9,0.6,18.8l-0.5-0.4c-0.6,1,4.9,1.6-1.8,12.8h-0.2
			c0,0.4,0.5,0.4-0.1,1.2l1.5-1.9c0.6,1.2,1.8,2.2,1.9,3.7c-0.3,0.3-0.8,0.4-1.2,0.5l0.4,3.8l-1.6,1.2c0.8,1.2,4.1,0.6,2.3,3.7
			c2.3-1.2,1.4,1.5,2.5,1.2c-0.3,0.2-0.7,0.5-1.1,0.8c0.3,1.8,0.9,5.3,2.1,6.2c0,0,4.8-7.2,7.3-9.1c-0.6,2.6,0.3,0.7,1,0.2l-0.6-0.2
			c0.6-1.6,2-1.6,2.4-2.3c-0.1,0-0.3,0-0.4,0l0.2,0.1c-0.3,0.1-0.4,0-0.6-0.1c-0.3,0-0.6-0.1-0.5-0.5l0.2,0.1
			c-0.2-0.6,0-1.8,0.1-2.3l1.2,0c-2.3-1.1,3.5-7.7,3.6-9.3c1.5-1.6-0.4-3.5,0.4-5.4c0.4-3.1,1.8-1.5,2.8-3.1
			c0.8-1.9-1.4,0.4-1.5-0.4l1.7-2.3c0.1,1.3,0.9,0.6,1.3,0.4c0.2-2,2.4-5.2,0-5.8c1.2-2.7,2.1-2.7,2.2-3.9c-0.4,0.4-0.8,1.2-1.3,1.2
			c1.1-1.1-0.3-0.5-0.5-0.1c-1-1.7,4.4-8.6,1.7-8.9h0.5c-2-0.4-3.9,0.2-5-0.9l0.9-0.8l-0.8-1.2c0.6-0.8,1.2-0.4,1.4-0.4
			c-0.9-1.9,0.2-4.5,0.4-6.8l-5.4,2.4c1.2-1.9,3.8-5.4,2-5.8l1.8-1.2c3.4-3.9-1.5-2.7-0.5-4.2l2-1.9l0,1.9c1-1.9,1.6-2.7,2.9-4.2
			c0,0,0,0-0.1,0c-0.1,0.1-0.2,0.2-0.3,0.2l0-0.3c-1-0.2-1.7-1.2-1.6-2.6c0.3-1.9-1.2-3.4,0.9-6.5l-2-0.8l1.2-2.3h1.6
			c-0.1,2.3,0.5,6.5,0.6,9.5l0.7,0.1c0-1.7-0.7-3.7-0.6-4.8c0.3-0.6,2-2,3.1-0.9l-1.6-1.1c-0.2-5.8-0.3-5.8,1.6-11.9l-0.8,0.5
			c-0.5-1.2-0.9-2.4,0.4-2.7c0.3-3.6,1.3-7.4,3.3-9.7l-1.9-0.5c0.1-0.8,3-1.9,0.3-2.3l-0.8-1.6c0.1-1-0.9-1.7,0.1-2.9c0,0,0,0,0,0
			c0,0,0,0,0,0c0.1-0.1,0.1-0.2,0.2-0.2c-0.1,0-0.1,0-0.2,0c0.8-2.4-1.7,0-0.6-2.7c1.3-0.9-2.4-1-2-2.3l2.7-1.3
			c1.6-2.4-1.2-2.8-1.2-6.3c1-1.7,3.3-2.5,5.3-1.4c-2.5-1.5-1.6-0.7-2.8-2.7c1-0.3,1.2-0.1,2.2,0.3c1.2-1.8-0.9-1.1-0.9-2.4
			c-1.9-0.4-5-0.8-5.1-1.3l-0.6,0.5c-1-1.4-1.5-3-0.5-4.6l1,0.1l-0.5-1.8l1.2-0.1l-0.4-2.5l-0.3,0.3c-0.2-0.6-0.6-2.5,0.1-3.6l0.7,0
			c2.1-3.1-0.7-5.7-0.9-9.4l1.4,0.5c1.4-1.2-2.2-0.3-1.5-1.8l1.7-0.1c-2.3-1.3,0.5-1.7,1.3-2.6l-2.3,0.4l0.5-1.7
			c0.7-1.9,2.8-1.1,4-0.9l-1.8-1.3l2-0.2c-2.3-0.9,0.4-0.9-0.9-2.6c0.8-0.1,1.2,0.3,1.5-0.3l-2.8-2.7l1.2,1.6l-2.9-0.2
			c-2.2-1.7,0.3-2.3-0.5-3.5l0.9,0.8c-0.7-2,0.5-2.1,1.2-3.2c-0.5,0.3-1.3,0.9-1.7,0.1c-0.2-0.6,1-0.3,1.3-0.9c-1.9-0.1-3-1.5-2-2.8
			c0.3,0,0.5,0,0.7,0.1c-0.3-0.3-0.8-0.5-0.3-1.1l2.2,0.3l-2-1.1c0.6-0.7-1-1.8,0.5-1.7l0.4,0.4l0.5-5.5l1.7-0.1
			c-2.4-0.5,0.9-3-2.1-2.8c1.6-1-1.1-4.1,2.2-3.5c0.3-3.6-3-5.6-1.3-10c2.8-1.6,1.9-5.9,2.2-8.7c-1.2-5.6-2.2-9.1-3.2-14.8
			c4-3.4-1.4-8.5,0.9-12.2l-1.6-1c2.5-2.4-0.6-6.2,1.9-9.6c-0.7-0.8-0.9-1.3-1-1.5c-0.1,0.2-0.4,0.4-1.4,0.5c0.7-1-0.2-3,1.8-2.8
			l0.2,0.2c2,0.1-0.9-3,0.8-4.1l-2.1,0.6l0.4-1.9l0.4,0.5c-4.7-8,2-11.7-2.3-19.2c2.3,1-1.2-1.5,1.3-1.6c3.2-1.9-0.7-3.5-1.5-5.1
			c-0.1,0-0.3,0-0.5-0.1l0.3-2.7c3.2,1.6-2.7-2,0.1-0.5c2.4-7.1,0-16.4,1.1-24.7l-0.8,0.4c0.2-2.1-0.8-4.7,0.5-6.3
			c1.3-1.6-2.1-3.5-2.2-4.1c-1.4-1.7,1.4-3.3,1.3-2.6c-0.4-1.9-3.3-3.6-2.1-6.2c2.7-0.9-2.7-7,0.4-7.1l-0.3,0
			c2.2-3.3-1.5-6.4,0.4-10c0,0,0.2,0.1,0.4,0.2l-9.3-7.2l-10.3,2.1l-8.3,6.3l1.8,17l-3.3,13.6l1.1,33l2.3,2.4
			c-4,6.5,0.6,14.8-2.3,21.8l2,0.1c0.1,2-1.1,1.8-1.5,2.3c0.4,18.3,3.1,37.2,0.6,53.7c-1.3,1.6-0.5,6.4-1.9,7.7
			c2.4,5.4,2.4,11,2.2,16.4l-0.2-0.2l0.4,2.5c-0.2,0.1-0.4,0.1-0.6,0c1.8,2.9,0,7.3-0.7,10.8l-0.2-0.2c-0.4,20.4,3.4,39.3,0.6,59.5
			c-3.3,9.4,1.2,20.3-1.5,31.1C229.8,354.7,231.3,376.5,232.2,378.4z"/>
		<path class="st0" d="M234.9,410.5L234.9,410.5C234,410.5,234.3,410.6,234.9,410.5z"/>
		<path class="st0" d="M257.8,365.5c0,0,0,0.1,0,0.1l1.2-0.5L257.8,365.5z"/>
		<path class="st0" d="M258.5,394.3c0.3-1.3,0.1-1.4-0.3-1.2C258.2,393.6,258.2,394,258.5,394.3z"/>
		<path class="st0" d="M236.5,421.1c-0.1,0.7,0.4,0.4,1,0c-0.1-0.7-0.2-1.2-0.2-1.2C237.1,420.3,236.7,420.7,236.5,421.1z"/>
		<path class="st0" d="M247.8,418.3l0.7,0.2C248.4,418.2,248.1,418.2,247.8,418.3z"/>
	</g>
</g>
<g>
	<line class="st0" x1="72.7" y1="250" x2="427.3" y2="250"/>
	<g>
		<path class="st0" d="M176.4,235.3C176.3,235.3,176.2,235.4,176.4,235.3L176.4,235.3z"/>
		<path class="st0" d="M292.8,232.4c0,0,0.1,0,0.1,0c0.1-0.4,0.2-0.7,0.2-1L292.8,232.4z"/>
		<path class="st0" d="M311.5,234.9c0,0,0.1,0.1,0.1,0.1C311.6,234.8,311.6,234.5,311.5,234.9z"/>
		<path class="st0" d="M249.7,236.1c-0.2,0-0.3,0.1-0.3,0.2C249.4,236.2,249.5,236.2,249.7,236.1z"/>
		<path class="st0" d="M142.1,237.5C142.1,237.5,142.2,237.4,142.1,237.5c0-0.1-0.1-0.2-0.1-0.3L142.1,237.5z"/>
		<path class="st0" d="M142.5,236.8c0.4,0.3-0.1,0.6-0.3,0.6c0.5,0.5,0.9,0.6,1.4,0.3C143.6,237.1,142.7,237.2,142.5,236.8z"/>
		<path class="st0" d="M79.9,239.2l0.2-0.2C80.1,239,80,239.1,79.9,239.2z"/>
		<path class="st0" d="M251.5,266.4c-0.1,0.1-0.2,0.1-0.3,0.1C251.4,266.6,251.4,266.5,251.5,266.4z"/>
		<path class="st0" d="M89.8,239.8l0.1-1C89.8,239.2,89.8,239.5,89.8,239.8z"/>
		<path class="st0" d="M293.1,231.4l0.1-0.4C293.2,231.1,293.2,231.2,293.1,231.4z"/>
		<path class="st0" d="M328.8,235.5c0,0.3,0,0.5,0.1,0.7c0,0,0,0,0,0L328.8,235.5z"/>
		<path class="st0" d="M415.9,251.1c0-0.1,0-0.2,0-0.4l-0.3,0.7C415.7,251.4,415.9,251.3,415.9,251.1z"/>
		<path class="st0" d="M352.5,239.8c0-0.1,0.1-0.2,0.1-0.3c-0.4-0.3-1.5-0.4-2.8-0.4l-0.1,1.2L352.5,239.8z"/>
		<path class="st0" d="M378.4,267.8l-2.5-2.4c8.1-1.1,11.9,1.3,18.8-0.6l-0.4,0.5c1,0.6,1.6-4.9,12.8,1.8v0.2c0.4,0,0.4-0.5,1.2,0.1
			l-1.9-1.5c1.2-0.6,2.2-1.8,3.7-1.9c0.3,0.3,0.4,0.8,0.5,1.2l3.8-0.4l1.2,1.6c1.2-0.8,0.6-4.1,3.7-2.3c-1.2-2.3,1.5-1.4,1.2-2.5
			c0.2,0.3,0.5,0.7,0.8,1.1c1.8-0.3,5.3-0.9,6.2-2.1c0,0-7.2-4.8-9.1-7.3c2.6,0.6,0.7-0.3,0.2-1l-0.2,0.6c-1.6-0.6-1.6-2-2.3-2.4
			c0,0.1,0,0.3,0,0.4l0.1-0.2c0.1,0.3,0,0.4-0.1,0.6c0,0.3-0.1,0.6-0.5,0.5l0.1-0.2c-0.6,0.2-1.8,0-2.3-0.1l0-1.2
			c-1.1,2.3-7.7-3.5-9.3-3.6c-1.6-1.5-3.5,0.4-5.4-0.4c-3.1-0.4-1.5-1.8-3.1-2.8c-1.9-0.8,0.4,1.4-0.4,1.5l-2.3-1.7
			c1.3-0.1,0.6-0.9,0.4-1.3c-2-0.2-5.2-2.4-5.8,0c-2.7-1.2-2.7-2.1-3.9-2.2c0.4,0.4,1.2,0.8,1.2,1.3c-1.1-1.1-0.5,0.3-0.1,0.5
			c-1.7,1-8.6-4.4-8.9-1.7v-0.5c-0.4,2,0.2,3.9-0.9,5l-0.8-0.9l-1.2,0.8c-0.8-0.6-0.4-1.2-0.4-1.4c-1.9,0.9-4.5-0.2-6.8-0.4l2.4,5.4
			c-1.9-1.2-5.4-3.8-5.8-2l-1.2-1.8c-3.9-3.4-2.7,1.5-4.2,0.5l-1.9-2l1.9,0c-1.9-1-2.7-1.6-4.2-2.9c0,0,0,0,0,0.1
			c0.1,0.1,0.2,0.2,0.2,0.3l-0.3,0c-0.2,1-1.2,1.7-2.6,1.6c-1.9-0.3-3.4,1.2-6.5-0.9l-0.8,2l-2.3-1.2v-1.6c2.3,0.1,6.5-0.5,9.5-0.6
			l0.1-0.7c-1.7,0-3.7,0.7-4.8,0.6c-0.6-0.3-2-2-0.9-3.1l-1.1,1.6c-5.8,0.2-5.8,0.3-11.9-1.6l0.5,0.8c-1.2,0.5-2.4,0.9-2.7-0.4
			c-3.6-0.3-7.4-1.3-9.7-3.3l-0.5,1.9c-0.8-0.1-1.9-3-2.3-0.3l-1.6,0.8c-1-0.1-1.7,0.9-2.9-0.1c0,0,0,0,0,0c0,0,0,0,0,0
			c-0.1-0.1-0.2-0.1-0.2-0.2c0,0.1,0,0.1,0,0.2c-2.4-0.8,0,1.7-2.7,0.6c-0.9-1.3-1,2.4-2.3,2l-1.3-2.7c-2.4-1.6-2.8,1.2-6.3,1.2
			c-1.7-1-2.5-3.3-1.4-5.3c-1.5,2.5-0.7,1.6-2.7,2.8c-0.3-1-0.1-1.2,0.3-2.2c-1.8-1.2-1.1,0.9-2.4,0.9c-0.4,1.9-0.8,5-1.3,5.1
			l0.5,0.6c-1.4,1-3,1.5-4.6,0.5l0.1-1l-1.8,0.5l-0.1-1.2l-2.5,0.4l0.3,0.3c-0.6,0.2-2.5,0.6-3.6-0.1l0-0.7
			c-3.1-2.1-5.7,0.7-9.4,0.9l0.5-1.4c-1.2-1.4-0.3,2.2-1.8,1.5l-0.1-1.7c-1.3,2.3-1.7-0.5-2.6-1.3l0.4,2.3l-1.7-0.5
			c-1.9-0.7-1.1-2.8-0.9-4l-1.3,1.8l-0.2-2c-0.9,2.3-0.9-0.4-2.6,0.9c-0.1-0.8,0.3-1.2-0.3-1.5l-2.7,2.8l1.6-1.2l-0.2,2.9
			c-1.7,2.2-2.3-0.3-3.5,0.5l0.8-0.9c-2,0.7-2.1-0.5-3.2-1.2c0.3,0.5,0.9,1.3,0.1,1.7c-0.6,0.2-0.3-1-0.9-1.3c-0.1,1.9-1.5,3-2.8,2
			c0-0.3,0-0.5,0.1-0.7c-0.3,0.3-0.5,0.8-1.1,0.3l0.3-2.2l-1.1,2c-0.7-0.6-1.8,1-1.7-0.5l0.4-0.4l-5.5-0.5l-0.1-1.7
			c-0.5,2.4-3-0.9-2.8,2.1c-1-1.6-4.1,1.1-3.5-2.2c-3.6-0.3-5.6,3-10,1.3c-1.6-2.8-5.9-1.9-8.7-2.2c-5.6,1.2-9.1,2.2-14.8,3.2
			c-3.4-4-8.5,1.4-12.2-0.9l-1,1.6c-2.4-2.5-6.2,0.6-9.6-1.9c-0.8,0.7-1.3,0.9-1.5,1c0.2,0.1,0.4,0.4,0.5,1.4c-1-0.7-3,0.2-2.8-1.8
			l0.2-0.2c0.1-2-3,0.9-4.1-0.8l0.6,2.1l-1.9-0.4l0.5-0.4c-8,4.7-11.7-2-19.2,2.3c1-2.3-1.5,1.2-1.6-1.3c-1.9-3.2-3.5,0.7-5.1,1.5
			c0,0.1,0,0.3-0.1,0.5l-2.7-0.3c1.6-3.2-2,2.7-0.5-0.1c-7.1-2.4-16.4,0-24.7-1.1l0.4,0.8c-2.1-0.2-4.7,0.8-6.3-0.5
			c-1.6-1.3-3.5,2.1-4.1,2.2c-1.7,1.4-3.3-1.4-2.6-1.3c-1.9,0.4-3.6,3.3-6.2,2.1c-0.9-2.7-7,2.7-7.1-0.4l0,0.3
			c-3.3-2.2-6.4,1.5-10-0.4c0,0,0.1-0.2,0.2-0.4l-7.2,9.3l2.1,10.3l6.3,8.3l17-1.8l13.6,3.3l33-1.1l2.4-2.3c6.5,4,14.8-0.6,21.8,2.3
			l0.1-2c2-0.1,1.8,1.1,2.3,1.5c18.3-0.4,37.2-3.1,53.7-0.6c1.6,1.3,6.4,0.5,7.7,1.9c5.4-2.4,11-2.4,16.4-2.2l-0.2,0.2l2.5-0.4
			c0.1,0.2,0.1,0.4,0,0.6c2.9-1.8,7.3,0,10.8,0.7l-0.2,0.2c20.4,0.4,39.3-3.4,59.5-0.6c9.4,3.3,20.3-1.2,31.1,1.5
			C354.7,270.2,376.5,268.7,378.4,267.8z"/>
		<path class="st0" d="M410.5,265.1L410.5,265.1C410.5,266,410.6,265.7,410.5,265.1z"/>
		<path class="st0" d="M365.5,242.2c0,0,0.1,0,0.1,0l-0.5-1.2L365.5,242.2z"/>
		<path class="st0" d="M394.3,241.5c-1.3-0.3-1.4-0.1-1.2,0.3C393.6,241.8,394,241.8,394.3,241.5z"/>
		<path class="st0" d="M421.1,263.5c0.7,0.1,0.4-0.4,0-1c-0.7,0.1-1.2,0.2-1.2,0.2C420.3,262.9,420.7,263.3,421.1,263.5z"/>
		<path class="st0" d="M418.3,252.2l0.2-0.7C418.2,251.6,418.2,251.9,418.3,252.2z"/>
	</g>
</g>
</svg>
