<?xml version="1.0" encoding="utf-8"?>
<!-- Generator: Adobe Illustrator 19.2.1, SVG Export Plug-In . SVG Version: 6.00 Build 0)  -->
<svg version="1.1" id="Capa_1" xmlns="http://www.w3.org/2000/svg" xmlns:xlink="http://www.w3.org/1999/xlink" x="0px" y="0px"
	 viewBox="0 0 512 512" style="enable-background:new 0 0 512 512;" xml:space="preserve">
<style type="text/css">
	.st0{fill:#222222;}
</style>
<g>
	<g>
		<path class="st0" d="M328.4,247.5v17.1c0,18.8,15.3,34.1,34.1,34.1h25.6c18.8,0,34.1-15.3,34.1-34.1v-128
			c0-18.8-15.3-34.1-34.1-34.1h-25.6h0c-14.4,0-27.4,9.1-32.2,22.8c-0.2,0.5-0.3,0.9-0.4,1.4l-1.5,8.5l16.8,2.9l1.3-7.7
			c2.6-6.5,8.8-10.8,15.9-10.8h25.6c9.4,0,17.1,7.7,17.1,17.1v128c0,9.4-7.7,17.1-17.1,17.1h-25.6c-9.4,0-17.1-7.7-17.1-17.1v-17.1
			H328.4z"/>
	</g>
</g>
<g>
	<g>
		<path class="st0" d="M328.4,72.5c0,25.9,21.1,46.9,46.9,46.9c25.9,0,46.9-21.1,46.9-46.9s-21.1-46.9-46.9-46.9
			C349.5,25.6,328.4,46.7,328.4,72.5z M345.5,72.5c0-16.5,13.4-29.9,29.9-29.9c16.5,0,29.9,13.4,29.9,29.9
			c0,16.5-13.4,29.9-29.9,29.9S345.5,89,345.5,72.5z"/>
	</g>
</g>
<g>
	<g>
		<path class="st0" d="M405.2,187.7V256c0,4.7,3.8,8.5,8.5,8.5h18.8c13.2,0,23.9-10.7,23.9-23.9v-37.5c0-13.2-10.7-23.9-23.9-23.9
			h-18.8C409,179.2,405.2,183,405.2,187.7z M422.3,196.3h10.2c3.8,0,6.8,3.1,6.8,6.8v37.5c0,3.8-3.1,6.8-6.8,6.8h-10.2V196.3z"/>
	</g>
</g>
<g>
	<g>
		<path class="st0" d="M226,145.1v153.6c0,4.7,3.8,8.5,8.5,8.5h102.4c4.7,0,8.5-3.8,8.5-8.5v-68.3h-17.1v59.7h-85.3V145.1
			c0-14.1,11.5-25.6,25.6-25.6h34.1v-17.1h-34.1C245.2,102.4,226,121.5,226,145.1z"/>
	</g>
</g>
<g>
	<g>
		<path class="st0" d="M234.5,42.7v34.1c0,23.5,19.1,42.7,42.7,42.7c23.5,0,42.7-19.1,42.7-42.7V42.7c0-3.6-0.4-7.3-1.4-10.8
			L302,36.4c0.5,2,0.8,4.1,0.8,6.2v34.2c0,14.1-11.5,25.6-25.6,25.6s-25.6-11.5-25.6-25.6V42.7c0-2.2,0.3-4.3,0.8-6.3l-16.5-4.5
			C235,35.4,234.5,39.1,234.5,42.7z"/>
	</g>
</g>
<g>
	<g>
		<path class="st0" d="M217.5,8.5c0,18.8,15.3,34.1,34.1,34.1h22.1l31.6,31.6c1.6,1.6,3.8,2.5,6,2.5c1.1,0,2.2-0.2,3.3-0.6
			c3.2-1.3,5.3-4.4,5.3-7.9V34.1c0-18.8-15.3-34.1-34.1-34.1L226,0C221.3,0,217.5,3.8,217.5,8.5z M236.8,17.1h48.9
			c9.4,0,17.1,7.7,17.1,17.1v13.5l-19.6-19.6c-1.6-1.6-3.8-2.5-6-2.5h-25.6C245.3,25.6,239.8,22.2,236.8,17.1z"/>
	</g>
</g>
<g>
	<g>
		<path class="st0" d="M153.9,459.9l34.1,17.1c1.2,0.6,2.5,0.9,3.8,0.9c3,0,5.9-1.6,7.4-4.3l72.2-128c1.4-2.6,3.9-4.2,6.7-4.2
			c4.1,0,7.5,3.4,7.5,7.6v37.9c0.1,17.2,10.4,32.6,26.2,39.2l81.4,34.1c4.2,1.7,8.9,0,10.9-4.1l17.1-34.1c1-2.1,1.2-4.5,0.4-6.7
			c-0.8-2.2-2.4-4-4.6-4.9l-71.7-31.9v-79.8h-17.1V384c0,3.4,2,6.4,5.1,7.8l68.6,30.5l-9.5,19l-74-31c-9.5-4-15.7-13.2-15.8-23.5
			v-37.8c0-13.6-11.1-24.7-24.7-24.7c-9.1,0.1-17.4,5.1-21.6,13l-68.1,120.7l-19.2-9.6l73-146l-15.3-7.6l-76.8,153.6
			C148,452.7,149.7,457.8,153.9,459.9z"/>
	</g>
</g>
<g>
	<g>
		<path class="st0" d="M375.8,497.8c4.3,8.8,13.1,14.2,22.9,14.2h4.4c9.8,0,18.6-5.4,22.9-14.2l29.4-58.8c1-2,1.2-4.4,0.5-6.5
			c-0.7-2.1-2.3-3.9-4.3-4.9l-34.1-17.1c-2-1-4.4-1.2-6.5-0.5c-2.1,0.7-3.9,2.3-4.9,4.3L375.8,475
			C372.3,482.1,372.3,490.6,375.8,497.8z M391.1,482.6l26.5-53l18.9,9.4l-25.6,51.1c0,0,0,0,0,0c-1.5,2.9-4.4,4.7-7.6,4.7h-4.4
			c-3.3,0-6.2-1.8-7.6-4.7C389.9,487.8,389.9,485,391.1,482.6z"/>
	</g>
</g>
<g>
	<g>
		<path class="st0" d="M119.8,485.5C119.8,485.5,119.8,485.5,119.8,485.5l51.2,25.6c1.2,0.6,2.5,0.9,3.8,0.9c3.1,0,6.1-1.7,7.6-4.7
			l17.1-34.1c2.1-4.2,0.4-9.3-3.8-11.5l-51.2-25.6c-13.6-6.8-30.2-1.2-37,12.3C100.7,462.1,106.2,478.7,119.8,485.5z M122.7,456.1
			c2.6-5.2,9-7.3,14.2-4.7l43.5,21.8L171,492l-43.6-21.8C122.3,467.6,120.1,461.3,122.7,456.1z"/>
	</g>
</g>
<g>
	<g>
		<path class="st0" d="M362.5,72.5c0,7.1,5.7,12.8,12.8,12.8s12.8-5.7,12.8-12.8s-5.7-12.8-12.8-12.8
			C368.3,59.7,362.5,65.5,362.5,72.5z M371.1,72.5c0-2.4,1.9-4.3,4.3-4.3c2.4,0,4.3,1.9,4.3,4.3c0,2.4-1.9,4.3-4.3,4.3
			C373,76.8,371.1,74.9,371.1,72.5z"/>
	</g>
</g>
<g>
	<g>
		<path class="st0" d="M113.3,198l42.2,42.2c9.9,10,23.7,15.8,37.9,15.8c0,0,0.1,0,0.1,0c17.9,0,34.5-8.9,44.4-23.9l3.7-5.5
			l-14.1-9.6l-3.8,5.5c-6.8,10.2-18.1,16.3-30.3,16.3c-0.1,0-0.1,0-0.1,0c-9.6,0-19-3.9-25.8-10.8L125.4,186
			c-4.4-4.4-4.9-11.5-1.2-16.5c0.4-0.5,0.8-1,1.2-1.4c2.4-2.3,5.5-3.6,8.8-3.6c0,0,0,0,0,0c3.4,0,6.5,1.3,8.9,3.7l42.7,42.7
			c1.7,1.7,4,2.6,6.4,2.5c2.4-0.1,4.6-1.2,6.2-3.1l42.7-51.2L228,148.1l-36.7,44l-36.1-36.1c-5.5-5.6-13-8.7-20.9-8.7
			c0,0-0.1,0-0.1,0c-7.9,0-15.3,3-20.9,8.6c-1,1-2,2.1-2.8,3.3C101.7,171,102.9,187.7,113.3,198z"/>
	</g>
</g>
<g>
	<g>
		<path class="st0" d="M257.3,256c0.3,0.5,0.6,0.9,1,1.4c5.8,7.8,14.8,12,23.9,12c5.7,0,11.5-1.6,16.5-5l71.7-50.7
			c11.1-7.4,17.8-20,17.8-33.5c0-13.5-6.7-26.1-18-33.6l-62.8-39.2c-13-8.7-30.7-5.6-40.2,7.1c-4.8,6.2-6.9,14-5.8,21.8
			c1,7.9,5,14.9,11.3,19.7c0.5,0.4,1,0.8,1.6,1.1c0.1,0.1,0.2,0.1,0.3,0.2l38.5,23.5l-47.6,34.2c-6.4,4.2-10.9,10.9-12.5,18.7
			C251.3,241.4,252.9,249.4,257.3,256z M269.6,237.1c0.7-3.3,2.6-6.2,5.5-8.1l58.3-41.9c2.3-1.7,3.7-4.4,3.5-7.3
			c-0.1-2.9-1.6-5.5-4.1-7L283,142.4c-2.7-2-4.4-5-4.8-8.4c-0.4-3.3,0.5-6.7,2.5-9.3c2.5-3.4,6.4-5.2,10.3-5.2c2.4,0,4.9,0.7,7,2.1
			l62.9,39.2c6.3,4.2,10.2,11.5,10.1,19.3c0,7.9-3.9,15.1-10.4,19.5L289,250.3c-5.4,3.6-13,2.3-17.1-3.1
			C269.6,243.8,269,240.4,269.6,237.1z"/>
	</g>
</g>
<g>
	<g>
		
			<rect x="281.1" y="145.3" transform="matrix(0.8754 -0.4834 0.4834 0.8754 -47.2858 161.5139)" class="st0" width="17.1" height="54.4"/>
	</g>
</g>
<g>
	<g>
		
			<rect x="319.9" y="236.9" transform="matrix(0.8944 -0.4472 0.4472 0.8944 -79.8167 173.9068)" class="st0" width="17.1" height="38.2"/>
	</g>
</g>
<g>
	<g>
		<rect x="336.9" y="247.5" class="st0" width="76.8" height="17.1"/>
	</g>
</g>
<g>
	<g>
		
			<rect x="-81.8" y="311.5" transform="matrix(0.2265 -0.974 0.974 0.2265 -229.2768 351.3065)" class="st0" width="376.7" height="17.1"/>
	</g>
</g>
<g>
	<g>
		<rect x="285.7" y="102.4" class="st0" width="93.9" height="17.1"/>
	</g>
</g>
</svg>
