<?xml version="1.0" encoding="utf-8"?>
<!-- Generator: Adobe Illustrator 19.2.1, SVG Export Plug-In . SVG Version: 6.00 Build 0)  -->
<svg version="1.1" id="Layer_1" xmlns="http://www.w3.org/2000/svg" xmlns:xlink="http://www.w3.org/1999/xlink" x="0px" y="0px"
	 viewBox="0 0 500 500" style="enable-background:new 0 0 500 500;" xml:space="preserve">
<style type="text/css">
	.st0{fill:#231F20;}
</style>
<g>
	<path class="st0" d="M14.2,399C14.1,399.8,14.2,400.2,14.2,399L14.2,399z"/>
	<path class="st0" d="M243.9,11.6c0.2,0,0.3,0,0.6,0c0.4-0.4,0.8-0.7,1.2-1L243.9,11.6z"/>
	<path class="st0" d="M338,14.1c0.2,0,0.4,0.1,0.6,0.1C338.6,14,338.7,13.7,338,14.1z"/>
	<path class="st0" d="M15,18.3c0,1.4,0.1,2.2,0.2,2.9C15.1,20.3,15,19.4,15,18.3z"/>
	<path class="st0" d="M125.4,487.4c0,0-0.2,0-0.4,0c0.3,0.1,0.7,0.1,1,0.2L125.4,487.4z"/>
	<path class="st0" d="M123.5,488.1c-2.1-0.3,0.6-0.6,1.5-0.6c-2.3-0.5-4.6-0.6-6.9-0.3C118.1,487.8,122.5,487.7,123.5,488.1z"/>
	<path class="st0" d="M438.2,485.7l-0.9,0.2C437.6,485.9,437.9,485.8,438.2,485.7z"/>
	<path class="st0" d="M46.4,45.6c0,0.1-0.1,0.1-0.1,0.1C46.4,45.8,46.4,45.7,46.4,45.6z"/>
	<path class="st0" d="M388.8,485.1l-0.5,1C388.7,485.7,388.8,485.4,388.8,485.1z"/>
	<path class="st0" d="M245.7,10.6l0.7-0.4C246.1,10.3,245.9,10.4,245.7,10.6z"/>
	<path class="st0" d="M425,14.7c0,0.3,0.2,0.5,0.5,0.7c0.1,0,0.2,0,0.2,0L425,14.7z"/>
	<path class="st0" d="M473.5,417.8c0.1,0,0.2-0.1,0.4-0.2l-0.7-1.7C473.2,416.7,473.3,417.3,473.5,417.8z"/>
	<path class="st0" d="M484.8,98.8c0.1,0.1,0.2,0.4,0.3,0.4c0.3-2,0.4-7.4,0.4-14.3l-1.2-0.4L484.8,98.8z"/>
	<path class="st0" d="M456.8,229.2l2.4-12.7c1.1,40.8-1.3,59.8,0.6,94.8l-0.5-1.9c-0.6,5.1,4.9,8-1.8,64.1h-0.2
		c0,1.9,0.5,1.9-0.1,5.8l1.5-9.7c0.6,5.8,1.8,10.9,1.9,18.7c-0.3,1.6-0.8,2.2-1.2,2.4l0.4,19l-1.6,5.8c0.8,5.8,4.1,3.2,2.3,18.7
		c2.3-5.9,1.4,7.7,2.5,5.8c-0.3,0.8-0.7,2.6-1.1,4c0.3,9.2,0.9,26.7,2.1,31c0,0,4.8-36.2,7.3-45.9c-0.6,13,0.3,3.4,1,0.9l-0.6-0.9
		c0.6-7.8,2-7.8,2.4-11.7c-0.1,0-0.3,0.1-0.4,0.2l0.2,0.5c-0.3,0.4-0.4,0.2-0.6-0.3c-0.3,0.1-0.6-0.3-0.5-2.4l0.2,0.4
		c-0.2-3.3,0-8.9,0.1-11.3l1.2,0c-2.3-5.8,3.5-38.9,3.6-46.6c1.5-7.8-0.4-17.5,0.4-27.2c0.4-15.5,1.8-7.8,2.8-15.5
		c0.8-9.7-1.4,2-1.5-1.9l1.7-11.7c0.1,6.8,0.9,3.1,1.3,1.9c0.2-10.1,2.4-26,0-29.1c1.2-13.6,2.1-13.6,2.2-19.5
		c-0.4,2-0.8,5.8-1.3,5.9c1.1-5.4-0.3-2.6-0.5-0.4c-1-8.3,4.4-43.1,1.7-44.8h0.5c-2-1.9-3.9,1.2-5-4.6l0.9-3.9l-0.8-5.8
		c0.6-3.9,1.2-2,1.4-2c-0.9-9.5,0.2-22.7,0.4-34.2L477,177c1.2-9.7,3.8-27.2,2-29.1l1.8-5.8c3.4-19.5-1.5-13.6-0.5-21.3l2-9.8l0,9.7
		c1-9.7,1.6-13.6,2.9-21.4c0,0,0-0.1-0.1-0.1c-0.1,0.5-0.2,0.9-0.3,1l0-1.4c-1-1.2-1.7-6.2-1.6-13.1c0.3-9.7-1.2-17.3,0.9-32.9
		l-2-3.9c0,0.4,0.3-3.8,0.6-8c0.3-4.3,0.6-8.6,0.6-8.6l1.6-0.9c0,4.4,0,9.8,0,15.7c0.1,4,0.1,8.4,0.2,12.8c0.2,8.6,0.3,17.7,0.4,25
		l0.7,0.3c0-8.7-0.7-18.6-0.6-24.4c0.3-2.8,2-10,3.1-4.8l-1.6-5.4c0-7.5-0.1-13.8-0.1-19.1c0-5.8,0-10.6,0-14.9
		c-9.2,0-16.5-0.1-25.9-0.4c-1.2,0-2.4-0.1-3.6-0.1c-0.6,0-1.3,0-1.9-0.1c-0.4,0-0.9,0-1.3-0.1c-1.6-0.1-3.3-0.2-5.1-0.3
		c-3.6-0.2-7.8-0.5-12.9-0.8l2.6,0.8c-6,0.5-12,0.9-13.7-0.4c-18.2-0.3-37.1-1.3-48.9-3.3l-2.6,1.9c-3.8-0.1-9.6-3-11.5-0.3
		l-8.2,0.8c-5.3-0.1-8.5,0.9-14.5-0.1v0c0,0,0,0,0,0c-0.4-0.1-0.8-0.1-1.1-0.2c0,0.1,0,0.1,0.1,0.2c-11.9-0.8,0.1,1.7-13.5,0.6
		c-4.4-1.3-4.8,2.4-11.5,2l-6.7-2.7c-12-1.6-14.1,1.2-31.5,1.2c-8.4-1-12.4-3.3-6.9-5.3c-7.6,2.5-3.5,1.6-13.6,2.8
		c-1.6-1-0.5-1.2,1.8-2.2c-9-1.2-5.5,0.9-12.3,0.9c-2,1.9-4.2,5-6.4,5.1l2.6,0.6c-7.2,1-15,1.5-23.3,0.5l0.3-1l-8.9,0.5l-0.6-1.2
		l-12.7,0.4l1.7,0.3c-3,0.2-12.7,0.6-18.3-0.1l0.2-0.7c-15.8-2.1-28.7,0.7-47.2,0.9l2.4-1.4c-6.3-1.4-1.7,2.2-9.2,1.5l-0.4-1.7
		c-6.6,2.3-8.5-0.5-13.1-1.3l2.1,2.3l-8.6-0.5c-9.4-0.7-5.8-2.8-4.4-4l-6.4,1.8l-1.3-2c-4.7,2.3-4.7-0.4-12.9,0.9
		c-0.7-0.8,1.4-1.2-1.4-1.5l-13.5,2.8l8.2-1.2l-1,2.9C64.1,17.6,61.1,15,55,15.8l4.2-0.9c-5,0.4-7.6,0.2-9.6-0.1
		c-0.5-0.1-1-0.2-1.5-0.3c-0.8-0.1-1.7-0.2-2.5-0.3c-1.8-0.2-3.7-0.4-6.3-0.6c3.3,0.5,7.9,1.3,1.1,1.7c-5,0.2-3-1-8.1-1.3
		c-0.1,0.8-2.1,1.4-4.9,1.8c-2.9,0.4-6.7,0.6-11,0.6c0,2.1-0.1,4.2-0.3,6.3c-0.3-0.4-0.5-0.8-0.7-1.7c0.3,3.1,0.8,4.8,0.3,9.4
		c0,0-0.5-1-1.1-2.1c-0.5-1.1-1.1-2.2-1.1-2.2s0.5,2.7,1,5.5c0.5,2.6,1,5.2,1,5.2c-0.3,3-0.1,7,0.1,9.9c0.1,1.7,0.1,2.1,0,2.7
		c-0.1,0.5-0.2,0.7-0.6,0.6c0,0-0.1-0.5-0.2-1c-0.1-0.3-0.1-0.5-0.1-0.7c0-0.1,0-0.2,0-0.3c0-0.1,0-0.2,0-0.2L14,76l-1.7,0.4
		c2.4,2.8-0.9,15.2,2.1,14.3c-1.6,5.3,1.1,20.7-2.2,17.6c-0.3,18.3,3,28.2,1.3,50.4c-2.8,7.9-1.9,29.6-2.2,43.9
		c1.2,27.9,2.2,45.9,3.2,74.5c-4,17.2,1.4,42.8-0.9,61.3l1.6,5.1c-2.5,12.3,0.6,31-1.9,48.2c0.7,4.2,0.9,6.4,1,7.4
		c0.1-0.8,0.4-2,1.4-2.3c-0.7,4.9,0.2,14.9-1.8,14.2l-0.2-1.2c-2-0.7,0.9,14.9-0.8,20.4l2.1-3l-0.4,9.3l-0.4-2.5
		c0.5,4.1,0.8,8,1.1,11.7c0.1,1.8,0.2,3.6,0.3,5.4c0,0.9,0.1,1.7,0.1,2.6c0,0.4,0,0.9,0,1.3c0,0.5,0,1,0,1.5
		c0.2,11.3,0.1,21.6-0.1,31.8c13.2,0.3,25.6,0.5,39.1,0.8c8.9,0.1,18.5-0.2,29.7-1.5c-5,2.3,7.5-1.2,8,1.3
		c9.6,3.2,17.7-0.7,25.6-1.5c0-0.1,0.1-0.3,0.5-0.5l13.7,0.3c-8.2,3.2,9.9-2.7,2.4,0.1c35.8,2.4,82.5,0,124,1.1l-1.8-0.8
		c10.5,0.2,23.6-0.8,31.6,0.5c8,1.3,17.4-2.1,20.5-2.2c8.7-1.4,16.7,1.4,12.9,1.3c9.3-0.4,18.1-3.3,31.1-2.1
		c4.4,2.7,35.4-2.7,35.8,0.4l0.1-0.3c16.6,2.2,32.3-1.5,50.2,0.4c0,0-0.3,0.2-0.9,0.4l36.4-9.3l-10.4-10.3l-31.6-8.3l-85.5,1.8
		l-68.3-3.3l-166.1,1.1l-11.9,2.3c-10.8-1.3-22.5-1.7-34.7-1.7c-3,0-6.1,0-9.2,0c-3,0-6,0.1-9,0.1c-0.8,0.1-1.7,0.2-2.7,0.3
		c-0.1-0.9-0.1-1.9,0.1-2.8c0.1-6.3,0.4-12.5,0.9-18.5l-2-0.7c-0.1-9.9,1.1-9.2,1.5-11.7c-0.4-92.2-3.1-187.2-0.6-270.2
		c1.3-8,0.5-32.3,1.9-38.6c-1.2-13.5-1.8-27.4-2.1-41.2c-0.1-6.9-0.2-13.9-0.2-20.8c0-1.7,0-3.4,0-5.2l0-0.8l0-0.4
		c0-0.6,0.1-1.1,0.1-1.6l0.2,0.3l-0.2-1l1-0.2c0.2,0.2,0.3,0.4,0.4,0.6c0.1-0.2,0.4-0.4,0.7-0.5c0.2-0.1,0.3-0.1,0.5-0.1l0.3,0
		l0.1,0c0,0,0,0,0.1,0l0.4,0c4.4-0.1,9.1,0,13.9,0.2c9.6,0.3,19.7,0.9,28.4,1.3l-1,0.2C192.3,46.9,287.4,43.2,389,46
		c13.3,0.9,27.2,1.2,41.5,1.2c7.2,0,14.4,0,21.8-0.1l2.8,0l0.3,0l0,0l0,0l0.1,0l0.4-0.1l1-0.2c0.1,0.4,0.2,0.9,0.2,1.4l0,0.1l0,0.1
		l0,0.6l0,2.2l0,4.4c0,2.9,0,5.9,0,8.9c-0.1,11.8-0.3,23.7-0.9,35.5C454.3,109.9,455.8,219.5,456.8,229.2z"/>
	<path class="st0" d="M459.4,390.6l0-0.4C458.6,390.2,458.9,390.8,459.4,390.6z"/>
	<path class="st0" d="M482.4,164.1c0,0.2,0,0.5,0,0.7l1.2-2.7L482.4,164.1z"/>
	<path class="st0" d="M483.1,309.2c0.3-6.5,0.1-6.8-0.3-5.9C482.7,305.6,482.8,307.7,483.1,309.2z"/>
	<path class="st0" d="M461,443.8c-0.1,3.4,0.4,2.1,1,0.1c-0.1-3.5-0.2-5.9-0.2-5.9C461.7,439.9,461.2,441.9,461,443.8z"/>
	<path class="st0" d="M472.4,429.9l0.7,1.1C472.9,428.9,472.7,429,472.4,429.9z"/>
</g>
<g>
	<path class="st0" d="M175.9,331.6C175.7,331.7,175.8,331.9,175.9,331.6L175.9,331.6z"/>
	<path class="st0" d="M259.5,203.7c0,0,0-0.1,0.1-0.1c-0.3-0.4-0.5-0.7-0.7-0.9L259.5,203.7z"/>
	<path class="st0" d="M277.3,186.4c0.1,0,0.1,0,0.2,0C277.2,186.2,277,186,277.3,186.4z"/>
	<path class="st0" d="M228.7,251.4c-0.1,0.2-0.1,0.3-0.1,0.5C228.6,251.7,228.6,251.6,228.7,251.4z"/>
	<path class="st0" d="M168.1,342.2C168.1,342.2,168.1,342.2,168.1,342.2c0-0.2,0-0.3,0-0.4L168.1,342.2z"/>
	<path class="st0" d="M168.3,341.3c0.1,0.5-0.1,0.8-0.2,0.8c0.1,0.9,0.2,1.1,0.4,0.9C168.6,342.2,168.3,342,168.3,341.3z"/>
	<path class="st0" d="M117,294.7l0.4,0C117.3,294.6,117.1,294.7,117,294.7z"/>
	<path class="st0" d="M257.6,269.1c0,0.1-0.1,0.3-0.1,0.4C257.6,269.4,257.6,269.2,257.6,269.1z"/>
	<path class="st0" d="M125.6,304.1l0.9-0.7C126,303.6,125.8,303.8,125.6,304.1z"/>
	<path class="st0" d="M258.9,202.6l-0.2-0.4C258.7,202.3,258.8,202.5,258.9,202.6z"/>
	<path class="st0" d="M292.6,169.6c0.3,0.2,0.5,0.4,0.7,0.5c0,0,0,0,0,0L292.6,169.6z"/>
	<path class="st0" d="M385.9,102.7c-0.1-0.1-0.2-0.2-0.3-0.3l0.1,0.9C385.9,103.1,385.9,102.9,385.9,102.7z"/>
	<path class="st0" d="M317.2,149.9c-0.1-0.1-0.1-0.2-0.2-0.3c-0.6,0.1-1.7,1.1-2.9,2.4l0.9,1c0,0,0.5-0.8,1.1-1.6
		C316.6,150.7,317.2,149.9,317.2,149.9z"/>
	<path class="st0" d="M362.8,148.4l-4.2,0.3c3.3-4,6.3-6.3,9-8.6c2.7-2.3,5.3-4.4,7.9-8.2l0,0.8c0.7-0.2,0.1-1.5,1.4-3.3
		c1.2-1.8,4.2-4.1,11.9-5.8l0.2,0.2c0.3-0.4,0-0.8,1.2-0.8l-2.9,0.3c0.7-1.5,0.8-3.3,2.1-4.7c0.5,0,1,0.3,1.3,0.6l3.3-3.4l2.2,0.4
		c0.5-1.6-2.3-4.1,2-4.9c-2.8-1,0.5-2.4-0.7-3.1c0.4,0.1,1,0.2,1.6,0.3c1.6-1.7,4.6-5,4.6-6.7c0,0-2.6,0.4-5.7,0.7
		c-3.1,0.3-6.6,0.6-8.4,0.3c3-1.6,0.5-0.8-0.6-1l0.2,0.6c-1.9,0.8-3-0.5-4-0.2c0.1,0.1,0.2,0.2,0.3,0.3l0-0.2
		c0.3,0.2,0.3,0.3,0.4,0.5c0.2,0.2,0.3,0.5-0.1,0.8l0-0.2c-0.5,0.7-1.8,1.4-2.3,1.8l-0.9-1c0.5,2.9-10.1,3.5-11.7,4.8
		c-2.7,0-3.1,3.3-5.6,4.3c-3.3,2.4-2.8-0.1-5.1,0.4c-2.4,1.1,1.4,0.8,0.7,1.6l-3.5,0.6c1.2-1.3-0.1-1.3-0.6-1.4
		c-2.1,1.6-6.8,2.6-5.6,5.1c-3.4,1.5-4.2,0.7-5.4,1.7c0.7,0,1.7-0.4,2.1,0c-1.8,0.1-0.3,0.7,0.3,0.5c-0.7,2.3-11.6,4.2-9.8,6.6
		l-0.4-0.4c1.2,1.9,3.2,2.9,3,4.8l-1.4,0l-0.4,1.7c-1.2,0.2-1.3-0.6-1.5-0.8c-1,2.5-4.3,4-6.7,5.9l6.5,2c-2.8,0.8-8,2-6.9,3.7
		l-2.5-0.3c-6.3,0.9-1.3,3.7-3.5,4.3l-3.3,0.3l1.8-1.8c-2.6,1-3.8,1.3-6.2,1.7c0,0,0,0,0,0.1c0.2,0,0.3,0,0.4,0l-0.2,0.3
		c0.6,1,0.2,2.4-1.1,3.7c-2,1.6-2.1,4.2-6.6,5.6l1,2.3l-3,1.3l-1.3-1.2c2.1-2.1,5.4-6.7,8-9.5l-0.5-0.6c-1.5,1.7-2.7,4.1-3.9,5.1
		c-0.8,0.3-3.4,0.4-3.4-1.4l0.3,2.2c-2.5,2.8-3.8,4.3-5.2,5.6c-1.5,1.3-3.1,2.5-6.5,4.7l1.1,0.1c-0.7,1.5-1.3,3-2.7,2.4
		c-3.4,3.4-7.4,6.4-11.2,7.2l1.1,1.9c-0.7,0.7-4.1-0.2-2.2,2l-0.7,2.2c-1,1-0.6,2.4-2.6,2.8l0,0c0,0,0,0,0,0c-0.1,0-0.2,0.1-0.4,0.1
		c0,0,0.1,0.1,0.1,0.1c-2.7,1.8,1.5,1.2-1.8,3.1c-1.9-0.1,1.2,2.7-0.2,3.7l-3.4-0.6c-3.4,1.3-1.3,3.7-4.2,7.2
		c-2.2,1-4.9,0.2-5.7-2.3c0.9,3.3,0.8,1.8,0.2,4.7c-1.1-0.4-1.2-0.8-1.6-1.9c-2.5,1-0.1,1.8-1.3,3.1c1.3,1.7,3.6,4.3,3.4,4.9
		l0.9-0.1c-0.3,2.2-1.1,4.1-3.3,5.1l-0.8-0.7l-1,2.2l-1.2-0.7l-1.7,2.9l0.6-0.1c-0.3,0.7-1.5,3-3,3.7l-0.6-0.5
		c-4.4,1.8-4,6.4-6.7,10.4l-0.9-1.4c-2.2,0.4,1.6,1.8-0.1,2.9l-1.6-1.1c1,2.9-1.8,1.5-3.2,1.8l2.3,1.1l-1.8,1.5
		c-2.1,1.5-3.4-0.7-4.3-1.7l0.6,2.5l-2-1.1c1.3,2.5-1.1,0.7-1.2,3.3c-0.8-0.4-0.8-1.1-1.6-0.7l0.5,4.7l0.1-2.5l2.5,2.1
		c0.7,3.2-2,2.2-2.2,4l-0.1-1.4c-0.9,2.6-2.1,1.9-3.5,2.6c0.8,0,1.9-0.1,1.6,1c-0.3,0.7-1.2-0.3-1.9,0.1c1.7,1.4,1.5,3.6-0.3,4.3
		c-0.2-0.2-0.5-0.4-0.6-0.6c0,0.6,0.4,1.1-0.5,1.4l-1.7-1.7l1,2.5c-1.1,0.4-0.5,2.6-1.7,1.5l-0.1-0.7l-4.6,5.6l-1.6-1
		c1.7,2.1-3.1,2.7-0.2,4.4c-2.3,0.1-2,5.2-4.6,2.4c-3,3.8-1.4,7.9-6.1,11.7c-3.8,0-6.1,5.3-8.4,8.2c-1.4,3.4-2.5,6.3-3.7,9.1
		c-1.1,2.9-2.3,5.7-3.8,9.1c-6.1,1.5-4.6,10.3-9.2,13.1l0.8,2c-4,1.3-3.6,7.3-8.2,9.8c0.1,1.3,0,2-0.1,2.2c0.2-0.1,0.6-0.2,1.6,0.2
		c-1.3,0.7-1.8,3.5-3.6,2.2l0-0.4c-0.5-0.3-0.8-0.2-1,0.1c-0.1,0.2-0.2,0.4-0.3,0.6c0,0.1-0.1,0.3-0.1,0.4l0,0.1l0,0l0,0.1
		c0.2,0.3,0.3,0.8-0.5,0.3c0,0,0.5,0.3,1,0.7c0.5,0.3,1,0.7,1,0.7s-0.2,0.1-0.3,0.1c-0.2,0.1-0.3,0.1-0.3,0.1l-0.3-0.5
		c0.7,1.3,0.6,2.4,0.5,3.1c-0.2,0.7-0.6,1-1,1.1c-0.4,0.1-0.8,0.1-1,0.4c-0.3,0.3-0.4,1-0.5,2.7l0,0.4l-0.1,0.2
		c0,0.2-0.1,0.3-0.1,0.5c-0.1-1.9-0.1-1.5-0.2-1.1c-0.1,0.3-0.3,0.6-0.5-1.6c-0.5-2.9-0.5-2.7-0.7-1.9c-0.2,0.9-0.5,2.4-0.8,2.8
		c0,0.2,0,0.4-0.1,0.6l-0.9-1.4c0.6-1.9,0.3-1.1,0-0.3c-0.4,0.8-0.8,1.6-0.1,0.1c-0.4-1.4-0.9-2.2-1.4-2.9c-0.3-0.3-0.5-0.7-0.8-0.9
		c-0.6-0.5-1.2-1-1.7-1.6c-4-3.7-8.3-7.4-11.7-11.6l-0.3,1c-1.8-2-5-3.6-5.4-6.1c-0.4-2.5-4.8-1.5-5.5-1.9c-2.7-0.4-2-4.1-1.4-3.3
		c-2-1.4-5.9-0.6-7.3-3.9c1.3-3-8.6-4.2-6.2-6.8l-0.2,0.2c-1.4-4.7-7.1-4.6-8.9-9.4c0,0,0.2-0.1,0.5-0.2l-14,0.9l-6.1,10l-0.7,12.3
		l17.1,14l10,14.9c0,0,7.8,7.3,15.7,14.5c14.1,13.4,28.3,26.9,28.3,26.9s1.1,0.2,2.1,0.2c1,0.1,1.9,0.1,1.9,0.1c1.3,2,2.6,3.9,4,5.7
		c0.7,0.9,1.4,1.8,2.1,2.6c0.7,0.8,1.5,1.7,2.2,2.4c3.2-5.5,6.4-12.8,9.6-19.3c1.6-3.3,3.2-6.5,4.9-9.4c1.7-3,3.5-5.6,5.6-8
		l-1.5-1.9c2.1-4.1,3.1-3,4-3.8l2-3.6l1-1.9l2.1-3.9l4.1-7.8c1.4-2.6,2.7-5.2,4.1-7.7c1.4-2.6,2.8-5.1,4.2-7.6
		c5.7-10,11.8-19.5,18.8-27.4c2.3-0.9,5-6.4,7.2-6.9c1.6-7.2,5.7-13.1,9.9-18.5l0.1,0.4l1.5-2.9c0.2,0,0.5,0.1,0.5,0.3
		c0.5-4.1,5.4-7.6,8.7-10.7l0,0.4c7.8-10.3,14.7-20.7,21.9-30.8c7.3-10,15-19.8,24.6-28.4c5.2-3.3,9.2-8.3,13.4-13.5
		c2-2.6,4.2-5.2,6.5-7.7c2.3-2.5,4.8-4.8,7.7-6.7c1.7-0.1,6.9-5.4,12-10.9C357.5,155.3,362.3,149.6,362.8,148.4z"/>
	<path class="st0" d="M390.7,119.2L390.7,119.2C391.3,120,391.2,119.6,390.7,119.2z"/>
	<polygon class="st0" points="331,139.7 331.1,139.5 329.7,139.1 	"/>
	<path class="st0" d="M357.8,113.1c-1.5,0.9-1.4,1.1-0.9,1.3C357.3,114,357.7,113.6,357.8,113.1z"/>
	<path class="st0" d="M399.9,109.3c0.7-0.5,0.1-0.7-0.7-0.9c-0.6,0.6-1,1.1-1,1.1C398.6,109.4,399.3,109.4,399.9,109.3z"/>
	<path class="st0" d="M389.1,101.7l-0.3-0.8C388.5,101.4,388.7,101.6,389.1,101.7z"/>
</g>
</svg>
