<?xml version="1.0" encoding="utf-8"?>
<!-- Generator: Adobe Illustrator 19.2.1, SVG Export Plug-In . SVG Version: 6.00 Build 0)  -->
<svg version="1.1" id="Layer_1" xmlns="http://www.w3.org/2000/svg" xmlns:xlink="http://www.w3.org/1999/xlink" x="0px" y="0px"
	 viewBox="0 0 500 500" style="enable-background:new 0 0 500 500;" xml:space="preserve">
<style type="text/css">
	.st0{fill:#231F20;}
	.st1{fill:none;}
</style>
<g>
	<g>
		<path class="st0" d="M235.2,236.4C234.9,236.3,234.8,236.4,235.2,236.4L235.2,236.4z"/>
		<path class="st0" d="M404,233.6c0.1,0,0.1,0,0.2,0c0.1-0.4,0.2-0.7,0.3-0.9L404,233.6z"/>
		<path class="st0" d="M420.8,236c0,0,0.1,0.1,0.1,0.1C420.7,235.8,420.5,235.6,420.8,236z"/>
		<path class="st0" d="M341,237.3c0.1-0.1,0.3-0.2,0.5-0.2C341.2,237.1,341.1,237.2,341,237.3z"/>
		<path class="st0" d="M185.4,238.3c0,0,0.1,0,0.1,0c-0.1-0.1-0.2-0.1-0.3-0.2L185.4,238.3z"/>
		<path class="st0" d="M186.1,237.9c0.1,0.2-0.4,0.4-0.6,0.4c0.7,0.5,1.3,0.5,2,0.3C187.5,238.1,186.6,238.1,186.1,237.9z"/>
		<path class="st0" d="M185.9,237.7c0,0.1,0.1,0.1,0.2,0.2C186.1,237.8,186.1,237.8,185.9,237.7z"/>
		<path class="st0" d="M109.3,240.5l0.2-0.9C109.4,240,109.3,240.3,109.3,240.5z"/>
		<path class="st0" d="M404.5,232.7l0.2-0.4C404.7,232.4,404.6,232.5,404.5,232.7z"/>
		<path class="st0" d="M427.4,236.5c0.6,0.3,1,0.5,1.5,0.7c0,0,0,0,0,0L427.4,236.5z"/>
		<path class="st0" d="M375.3,163.4l0.8-0.1c-0.2-0.1-0.4-0.2-0.6-0.2C375.5,163.2,375.4,163.3,375.3,163.4z"/>
		<path class="st0" d="M428.2,230.7c-0.1,0-0.3,0-0.4,0c-0.2,0.2,0.2,0.7,0.8,1.3l1.6,0L428.2,230.7z"/>
		<path class="st0" d="M500.9,266.3c0.3-0.3,0.7-0.6,1.1-0.9c-0.2-0.1-0.9-0.2-1.6-0.3c0,0-0.1,0.2-0.2,0.4c0,0,0,0,0,0.1
			c-6.6-6.4-13.6-13-20.2-19.4c-7-6.9-13.5-13.5-19.5-20.7c-0.4-1.1-3.7-4.7-8.4-9.6c-2.4-2.4-5.1-5.2-8-8.1
			c-0.9-0.9-1.8-1.7-2.7-2.6c-0.8-0.7-1.5-1.5-2.3-2.2c-6.3-5.9-12.7-11.6-14-12.3l1,4.2c-9.1-7.6-11.4-13.1-19.8-18.9l0.7,0.1
			c-0.7-1.4-4.8,1.6-11.9-14.2l0.2-0.2c-0.4-0.4-0.7-0.1-1.1-1.3l1,3c-1.6-0.8-3.4-1.1-5.1-2.5c-0.2-0.5,0.1-1,0.3-1.2l-4.1-3.6
			l-0.2-2.2c-1.7-0.6-3.4,2.1-5.3-2.3c-0.3,2.7-2.5-0.7-2.9,0.5c0-0.3-0.1-1-0.1-1.5c-2.1-1.7-6-4.8-7.7-5c0,0,4.2,10.6,4.6,14.1
			c-2.2-3.1-0.9-0.5-0.9,0.5l0.6-0.2c1.2,2,0.3,2.9,0.8,4c0.1-0.1,0.1-0.2,0.2-0.3l-0.2,0c0.1-0.2,0.3-0.3,0.4-0.3
			c0.2-0.2,0.4-0.3,0.8,0.2l-0.2,0c0.8,0.5,1.8,1.8,2.2,2.4l-0.8,0.8c2.7-0.3,5.6,10.2,7.2,11.9c0.6,2.6,3.8,3.3,5.3,5.8
			c2.9,3.4,0.4,2.7,1.3,5c1.5,2.5,0.5-1.3,1.4-0.6l1.3,3.5c-1.5-1.3-1.2-0.1-1.3,0.5c1.9,2.2,3.7,6.9,5.9,5.9c2,3.5,1.4,4.2,2.5,5.4
			c-0.1-0.7-0.6-1.7-0.3-2.1c0.4,1.8,0.7,0.4,0.4-0.3c2.4,1,5.9,11.7,8,10.3l-0.3,0.3c1.7-0.9,2.3-2.8,4.2-2.3l0.2,1.4l1.7,0.6
			c0.4,1.2-0.4,1.2-0.5,1.3c2.5,1.3,4.5,4.8,6.7,7.3l1-6c1.2,2.8,3.1,8,4.6,7.3c0,0,0,0.6,0,1.2c-0.1,0.5-0.2,1-0.2,1
			c0.1,1.2,0.2,1.8,0.5,2.1c0.3,0.3,0.6,0.3,1.1,0.3c0.8-0.1,1.8-0.4,1.9,0.4c0,0-0.1,0.5-0.3,1c-0.1,0.5-0.4,0.9-0.4,0.9l-1.2-1.2
			c0.1,0.8,0.1,1.3,0,1.8c-0.1,0.5-0.3,0.9-0.7,1.3c0,0,0.1,0,0.1,0c0-0.1,0.1-0.1,0.2-0.1l0.2,0.1c1.2-0.1,2.6,0.4,3.3,1.2
			c0.4,0.5,1.2,1,1.9,1.6c0.7,0.6,1.2,1.3,0.3,1.8c0,0,0.9,0.3,1.9,0.5c1,0.3,1.9,0.6,1.9,0.6s-0.1,0.3-0.3,0.5
			c-0.2,0.2-0.4,0.4-0.4,0.4l-2.9-0.8c-0.5-0.5-1.5-1.4-2.5-2.2c-1-0.8-2.1-1.6-2.8-2.3l-1,0c0.3,0.3,1,0.7,1.5,1.1
			c0.6,0.4,1.1,0.7,1.3,1c-0.1,0.1-0.7,0.2-1.5,0.1c-0.8-0.1-1.9-0.3-3-0.6c0,0,0.7,0.2,1.4,0.4c0.7,0.2,1.5,0.4,1.5,0.4
			c1.1,1,1.7,1.6,2,2c0.2,0.4,0,0.7-0.9,0.7c-0.3-0.1-0.7-0.2-1.1-0.3l2,0.7c0.5,0.4,0.8,0.9-1.9-0.3c-2.1-0.2-5.3-1.2-8.2-3.1
			c0,0,0.6,0.4,1.1,0.9c0.6,0.4,1.1,0.9,1.1,0.9c-0.2,0-1.2-0.7-1.7-1.1c-0.5-0.4-0.6-0.4,0.7,0.8c0,0,0.3,0.8,0.3,0.8
			c-0.2-0.1-0.2,0.1-0.2,0.3c-0.1,0.1-0.3,0.1-0.9-0.4l0,0l0,0c-0.1-0.1-0.2-0.1-0.2-0.2c0,0.1,0.1,0.1,0.1,0.1
			c-1.3-0.8,1.1,1.6-0.6,0.6c-0.5-0.6-0.3-0.1-0.1,0.6c0.2,0.7,0.3,1.4-0.1,1.2c0,0-0.4-0.6-0.7-1.3c-0.3-0.6-0.6-1.3-0.6-1.3
			c-0.5-0.7-0.6-0.5-0.9,0l0,0.1l0,0l-0.1,0c-0.2,0.1-0.3,0.1-0.5,0.2c-0.3,0.1-0.7,0.2-1.1,0.4c-0.8,0.2-1.8,0.4-3.1,0.4
			c-2.4-0.9-3.6-3-2-4.9c-2.2,2.3-1,1.5-3.9,2.6c-0.4-0.9-0.1-1.1,0.5-2c-2.6-1.1-1.6,0.9-3.6,0.8c-0.6,1.8-1.2,4.6-1.9,4.7l0.8,0.6
			c-2.1,1-4.3,1.4-6.7,0.5l0.1-0.9l-2.6,0.5l-0.2-1.1l-3.7,0.4l0.5,0.3c-0.9,0.2-3.7,0.5-5.3-0.1l0.1-0.6c-4.5-2-8.3,0.6-13.6,0.8
			l0.7-1.3c-1.8-1.3-0.5,2-2.7,1.4l-0.1-1.6c-1.9,2.1-2.5-0.4-3.8-1.2l0.6,2.1l-2.5-0.4c-2.7-0.7-1.7-2.6-1.3-3.7l-1.9,1.7l-0.4-1.8
			c-1.4,2.2-1.4-0.3-3.7,0.8c-0.2-0.7,0.4-1.1-0.4-1.4l-3.9,2.6l2.4-1.2l-0.3,2.7c-2.5,2.1-3.3-0.3-5.1,0.5l1.2-0.8
			c-2.9,0.7-3-0.5-4.6-1.1c0.5,0.5,1.3,1.2,0.1,1.6c-0.9,0.1-0.5-0.9-1.3-1.2c-0.2,1.8-2.2,2.8-4.1,1.9c0-0.3,0.1-0.5,0.2-0.7
			c-0.5,0.3-0.7,0.8-1.5,0.3l0.5-2l-1.6,1.9c-1.1-0.5-2.6,0.9-2.5-0.4l0.6-0.4l-8-0.5l-0.1-1.6c-0.8,2.2-4.4-0.8-4.1,1.9
			c-1.5-1.5-6,1.1-5.1-2c-5.3-0.2-8.1,2.7-14.6,1.2c-2.3-2.6-8.6-1.8-12.7-2.1c-8.1,1.1-13.3,2.1-21.5,2.9c-5-3.7-12.4,1.3-17.7-0.8
			l-1.5,1.5c-3.5-2.3-9,0.5-13.9-1.7c-1.2,0.6-1.9,0.8-2.1,0.9c0.2,0.1,0.6,0.3,0.7,1.3c-1.4-0.7-4.3,0.2-4.1-1.7l0.4-0.2
			c0.2-1.9-4.3,0.9-5.9-0.7l0.9,2l-2.7-0.3l0.7-0.4c-11.7,4.4-17-1.9-27.9,2.1c1.5-2.2-2.2,1.1-2.3-1.2c-2.8-3-5.1,0.6-7.4,1.4
			c0,0.1,0,0.3-0.2,0.4l-4-0.3c2.4-3-2.9,2.5-0.7-0.1c-10.3-2.2-23.8,0-35.8-1l0.5,0.8c-3-0.1-6.8,0.8-9.1-0.4c-2.3-1.2-5,2-5.9,2.1
			c-2.3,1.2-4.4-0.8-4-1.1c-2.6,0.5-5.1,3-8.8,1.9c-1.3-2.5-10.2,2.5-10.3-0.4l0,0.2c-4.8-2-9.3,1.4-14.5-0.4c0,0,0.1-0.2,0.3-0.4
			l-10.5,8.7l3,9.5l9.1,7.7l24.7-1.7l19.7,3l3.3-0.1c-0.9,0.6-1.6,1.2-2,1.2c-2.3,1.2-4.4-0.8-4-1.1c-2.6,0.5-5.1,3-8.8,1.9
			c-1.3-2.5-10.2,2.5-10.3-0.4l0,0.2c-4.8-2-9.3,1.4-14.5-0.4c0,0,0.1-0.2,0.3-0.4l-10.5,8.7l3,9.5l9.1,7.7l24.7-1.7l19.7,3l48-1
			l3.4-2.2c9.4,3.8,21.5-0.6,31.7,2.1l0.2-1.9c2.9-0.1,2.7,1,3.4,1.4c26.6-0.4,54-2.9,78-0.5c2.3,1.2,9.3,0.5,11.1,1.8
			c7.8-2.3,16-2.2,23.8-2l-0.3,0.2l3.7-0.4c0.2,0.2,0.2,0.4,0.1,0.5c4.1-1.6,10.7,0,15.7,0.6l-0.3,0.2c14.8,0.2,29-0.6,43.3-1.1
			c3.6-0.1,7.1-0.2,10.7-0.3c1.5,0,3.1-0.1,4.6-0.1c0.3,0,0.6,0,1,0c1.2,0,2.5,0.3,2.4,1c-1.1,1.1-1.5,1.2-0.8,1.1
			c0.1,0.1,0.5,0.1,0.4,0.4c-0.1,0.3-0.8,0.8-2,0.9c-0.6-0.1-0.9-0.1-1-0.2c-0.1,0-0.1,0-0.1,0c-0.6,0.6-1.2,1.2-1.8,1.8
			c-0.7,0.8-1.5,1.5-2.2,2.3c-5.9,6.3-11.6,12.7-12.3,14l4.2-1c-7.6,9.1-13.1,11.4-18.9,19.8l0.1-0.7c-1.4,0.7,1.6,4.8-14.2,11.9
			l-0.2-0.2c-0.4,0.4-0.1,0.7-1.3,1.1l3-1c-0.8,1.6-1.1,3.4-2.5,5.1c-0.5,0.2-1-0.1-1.2-0.3l-3.6,4.1l-2.2,0.2
			c-0.6,1.7,2.1,3.4-2.3,5.3c2.7,0.3-0.7,2.5,0.5,2.9c-0.3,0-1,0.1-1.5,0.1c-1.7,2.1-4.8,6-5,7.7c0,0,10.6-4.2,14.1-4.6
			c-3.1,2.2-0.5,0.9,0.5,0.9l-0.2-0.6c2-1.2,2.9-0.3,4-0.8c-0.1-0.1-0.2-0.1-0.3-0.2l0,0.2c-0.2-0.1-0.3-0.3-0.3-0.4
			c-0.2-0.2-0.3-0.4,0.2-0.8l0,0.2c0.5-0.8,1.8-1.8,2.4-2.2l0.8,0.8c-0.3-2.7,10.2-5.6,11.9-7.2c2.6-0.6,3.3-3.8,5.8-5.3
			c3.4-2.9,2.7-0.4,5-1.3c2.5-1.5-1.3-0.5-0.6-1.4l3.5-1.3c-1.3,1.5-0.1,1.2,0.5,1.3c2.2-1.9,6.9-3.7,5.9-5.9c3.5-2,4.2-1.4,5.4-2.5
			c-0.7,0.1-1.7,0.6-2.1,0.3c1.8-0.4,0.4-0.7-0.3-0.4c1-2.4,11.7-5.9,10.3-8l0.3,0.3c-0.9-1.7-2.8-2.3-2.3-4.2l1.4-0.2l0.6-1.7
			c1.2-0.4,1.2,0.4,1.3,0.5c1.3-2.5,4.8-4.5,7.3-6.7l-6-1c2.8-1.2,8-3.1,7.3-4.6c0,0,0.6,0,1.2,0c0.7-0.1,1.4-0.2,1.4-0.2
			c1.9-0.8,3.1-1.6,3.8-2.2c0.7-0.6,0.8-1.1,0.8-1.6c0-0.9-0.8-1.4,0.7-2.2c0,0,1.1-0.5,2.2-1c1.2-0.5,2.3-1.1,2.3-1.1l-2.8,2.8
			c1.8-1.2,3.3-2.1,4.7-2.9c1.5-0.9,2.9-1.7,4.8-2.7c0,0,0,0,0,0c-0.3,0.2-0.5,0.2-0.6,0.2l0.4-0.4c-0.7-0.6,0-2.1,2.1-4.1
			c1.6-1.4,2.5-2.7,3.9-4.2c1.4-1.5,3.3-3.1,7.3-5.8c0,0-0.5-0.1-1.1-0.2c-0.5-0.1-1.1-0.2-1.1-0.2l5.5-3.9l2.9-0.8
			c-1.9,1.8-4.2,4.3-6.7,7c-2.5,2.7-5.1,5.6-7.5,7.9l0.9,0.1c1.4-1.4,2.7-3,3.9-4.3c1.2-1.4,2.2-2.6,3.3-3.5
			c0.7-0.5,2.3-1.4,3.7-2.1c1.2-0.5,2.2-0.9,2.6-0.6c-0.2-0.4-0.5-1.1-0.6-1.1c4.5-4.6,6.8-7,9.5-9.5c2.5-2.3,5.2-4.6,10.3-8.9
			c0.3,0,0.6,0,0.9,0C501.2,266.6,501.1,266.5,500.9,266.3z M344.1,264.8C344.1,264.8,344.1,264.8,344.1,264.8l-0.2,0L344.1,264.8z
			 M197.5,266.9c0,0.1,0,0.3-0.2,0.4l-4-0.3c2.4-3-2.9,2.5-0.7-0.1c-1.7-0.4-3.4-0.6-5.2-0.8l1.6,0l3.4-2.2c2.3,0.9,4.7,1.3,7.3,1.5
			C199,266.1,198.2,266.6,197.5,266.9z M207.2,266.7c1.4-2.1-2,0.9-2.3-1.1c6.3-0.2,12.9-1,18.9,0.5
			C218.5,265.6,213.9,264.2,207.2,266.7z M224.1,266.1l0.2-1.8c2.9-0.1,2.7,1,3.4,1.4c1.3,0,2.7,0,4-0.1
			C228.9,266.2,226.5,266.3,224.1,266.1z M242.3,265.3c1.1,0,2.2-0.1,3.4-0.1c0.1,0.2,0.1,0.4,0.2,0.7
			C244.8,265.5,243.2,265.7,242.3,265.3z M259.1,264.7c1,0,2.1-0.1,3.1-0.1l-0.9,0.9C260.6,265.1,259.8,264.8,259.1,264.7z
			 M264.5,264.5c1.3,0,2.6-0.1,3.9-0.1C267.1,264.5,265.8,264.6,264.5,264.5z M279.2,264.2c2.3,0,4.7,0,7,0
			c-1.8,0.2-3.7,0.5-5.8,0.7C280,264.6,279.6,264.3,279.2,264.2z M345.9,265.3l0.6-0.4l-1-0.1c1.2-0.3,2.5-0.3,3.9-0.3l-1,1.2
			C347.3,265.2,345.7,266.7,345.9,265.3z M350.8,266.2c0-0.3,0.1-0.5,0.2-0.7c-0.5,0.3-0.7,0.8-1.5,0.3l0.3-1.3
			c1.6,0.1,3.3,0.3,4.9,0.5C354,266.4,352.3,266.9,350.8,266.2z M355.6,265.3c0.3,0,0.6,0.1,0.9,0.1c-0.1,0.1-0.2,0.1-0.3,0.1
			C355.8,265.6,355.7,265.5,355.6,265.3z M361.8,266.1c0.5,0,1,0,1.5,0C362.8,266.3,362.3,266.3,361.8,266.1z M375.2,266
			c0.4,0,0.8,0,1.2,0l0.1,0.3L375.2,266z M377.7,265.9c0.5,0,0.9,0,1.4,0C378.5,266.3,378.1,266.2,377.7,265.9z M379.8,267l-0.1-1.1
			c0.5,0,1.1,0,1.6,0C381.1,266.4,381,267.3,379.8,267z M382.3,265.8c2.5-0.1,4.9-0.2,7.4-0.3c-2.4,0.4-4.9,1.3-8,1.4L382.3,265.8z
			 M406.4,267.7l0.1-0.9l-2.6,0.5l-0.2-1.1l-3.7,0.4l0.5,0.3c-0.9,0.2-3.7,0.5-5.3-0.1l0.1-0.6c-0.9-0.4-1.7-0.6-2.5-0.7
			c3.3-0.1,6.7-0.3,10-0.4c3.5-0.1,7-0.2,10.5-0.3c-0.3,1-0.7,1.9-1,1.9l0.8,0.6C411,268.2,408.8,268.6,406.4,267.7z M426.2,265.1
			c-0.8,0.2-1.8,0.4-3.1,0.4c-0.6-0.2-1-0.5-1.4-0.8c1.9,0,3.9,0,5.8,0c-0.1,0-0.1,0-0.2,0.1C427,264.8,426.6,265,426.2,265.1z
			 M441.8,265.6c-1,0.7-2.2,1.4-3.7,1.2c0,0-0.6-0.6-1.2-1.3c-0.3-0.3-0.7-0.7-1-0.9c2.5,0,5.1,0.1,7.6,0.1
			C443.1,264.9,442.5,265.2,441.8,265.6z M444.6,265c-0.2-0.1-0.4-0.2-0.6-0.3c1.5,0,2.9,0.1,4.4,0.1
			C448.1,265.2,447.6,265.5,444.6,265z"/>
		<path class="st0" d="M128.4,239c0.1,0,0.1,0,0.2,0C128.5,238.9,128.5,239,128.4,239z"/>
		<path class="st0" d="M390.3,159.4L390.3,159.4C391,159,390.6,159,390.3,159.4z"/>
		<path class="st0" d="M421.5,220.7c0-0.1-0.1-0.1-0.1-0.2l-0.2,1.3L421.5,220.7z"/>
		<path class="st0" d="M391.4,191.6c1.2,1.5,1.4,1.4,1.4,1C392.4,192.1,391.9,191.7,391.4,191.6z"/>
		<path class="st0" d="M378.4,149.6c-0.7-0.7-0.7-0.1-0.7,0.6c0.8,0.7,1.3,1.1,1.3,1.1C378.8,150.8,378.7,150.2,378.4,149.6z"/>
		<path class="st0" d="M373.8,160l-0.7,0.2C373.6,160.5,373.8,160.3,373.8,160z"/>
		<path class="st0" d="M351,265.6c0.1-0.1,0.3-0.2,0.5-0.2C351.2,265.4,351.1,265.4,351,265.6z"/>
		<path class="st0" d="M195.4,266.6c0,0,0.1,0,0.1,0c-0.1-0.1-0.2-0.1-0.3-0.2L195.4,266.6z"/>
		<path class="st0" d="M196.1,266.1c0.1,0.2-0.4,0.4-0.6,0.4c0.7,0.5,1.3,0.5,2,0.3C197.5,266.4,196.6,266.4,196.1,266.1z"/>
		<path class="st0" d="M195.9,266c0,0.1,0.1,0.1,0.2,0.2C196.1,266.1,196,266,195.9,266z"/>
		<path class="st0" d="M354.1,293.6c-0.1,0.1-0.3,0.1-0.4,0.1C353.9,293.7,354,293.6,354.1,293.6z"/>
		<path class="st0" d="M119.3,268.8l0.2-0.9C119.4,268.2,119.3,268.5,119.3,268.8z"/>
		<path class="st0" d="M384.4,363.9l-0.1-0.8c-0.1,0.2-0.2,0.4-0.2,0.6C384.2,363.8,384.3,363.8,384.4,363.9z"/>
		<path class="st0" d="M461.7,301c0.1,0.1,0.1,0.2,0.3,0.2c1-0.6,2.8-2.3,5-4.5l-1.4-0.2L461.7,301z"/>
		<path class="st0" d="M138.4,267.3c0.1,0,0.1,0,0.2,0C138.5,267.2,138.5,267.2,138.4,267.3z"/>
		<path class="st0" d="M481.2,286.2c0.1,0.2,0.1,0.3,0.1,0.3C481.4,286.3,481.3,286.3,481.2,286.2z"/>
		<path class="st0" d="M380.4,348.9L380.4,348.9C379.9,348.3,380,348.6,380.4,348.9z"/>
		<path class="st0" d="M441.7,317.8c-0.1,0-0.1,0.1-0.2,0.1l1.3,0.2L441.7,317.8z"/>
		<path class="st0" d="M412.6,347.8c1.5-1.2,1.4-1.4,1-1.4C413.1,346.9,412.7,347.4,412.6,347.8z"/>
		<path class="st0" d="M370.6,360.8c-0.7,0.7-0.1,0.7,0.6,0.7c0.7-0.8,1.1-1.3,1.1-1.3C371.8,360.5,371.1,360.6,370.6,360.8z"/>
		<path class="st0" d="M380.9,365.5l0.2,0.7C381.5,365.6,381.3,365.5,380.9,365.5z"/>
	</g>
	<path class="st1" d="M453.4,109.5l0,1.3c0.1-0.1,0.2-0.4,0.3-0.9C453.6,109.9,453.5,109.6,453.4,109.5z"/>
	<path class="st1" d="M453.5,61.4c0-5.5-0.1-10.5,0-14.6l-1.5,0.9c0,0-0.3,4-0.6,8c-0.3,3.6-0.5,7.3-0.6,7.5l1.9,3.6
		c-1.9,14.4-0.6,21.5-0.8,30.5c-0.1,6.4,0.6,11.1,1.5,12.2l-0.5-13.3l1.1,0.4c0-6.8-0.2-15.2-0.3-23.3
		C453.6,69.2,453.5,65.1,453.5,61.4z"/>
	<path class="st1" d="M443.4,406.2l-0.2-0.5c-0.1,0.1-0.2,0.2-0.4,0.2C443,406.3,443.1,406.5,443.4,406.2z"/>
	<path class="st1" d="M442.8,405.9c-0.1-0.4-0.2-1-0.3-1.8l-0.1-0.4C442.3,405.7,442.5,406,442.8,405.9z"/>
	<path class="st0" d="M16,388.5C15.9,389.2,16,389.6,16,388.5L16,388.5z"/>
	<path class="st0" d="M229.5,28.4c0.2,0,0.3,0,0.5,0c0.4-0.4,0.7-0.7,1.1-0.9L229.5,28.4z"/>
	<path class="st0" d="M317,30.7c0.2,0,0.3,0.1,0.5,0.1C317.4,30.6,317.5,30.4,317,30.7z"/>
	<path class="st0" d="M16.9,37.3c-0.1-0.8-0.2-1.6-0.2-2.7C16.7,35.9,16.8,36.7,16.9,37.3z"/>
	<path class="st0" d="M119.3,470.7c0,0-0.2,0-0.4,0c0.3,0.1,0.6,0.1,0.9,0.2L119.3,470.7z"/>
	<path class="st0" d="M116.9,471.1c-0.3-0.2,1.4-0.4,2.1-0.4c-2.1-0.5-4.3-0.5-6.4-0.3C112.5,470.9,115.4,470.9,116.9,471.1z"/>
	<path class="st0" d="M116.9,471.1c0.1,0.1,0.3,0.1,0.7,0.2C117.4,471.2,117.2,471.2,116.9,471.1z"/>
	<path class="st0" d="M410,469.1l-0.9,0.2C409.5,469.3,409.8,469.2,410,469.1z"/>
	<path class="st0" d="M45.9,60.1c0,0.1-0.1,0.1-0.1,0.1C45.9,60.2,45.9,60.2,45.9,60.1z"/>
	<path class="st0" d="M364.1,468.5l-0.5,0.9C364.1,469,364.2,468.8,364.1,468.5z"/>
	<path class="st0" d="M231.1,27.5l0.6-0.4C231.6,27.2,231.4,27.3,231.1,27.5z"/>
	<path class="st0" d="M397.7,31.3c0,0.3,0.2,0.5,0.4,0.7c0.1,0,0.2,0,0.2,0L397.7,31.3z"/>
	<path class="st0" d="M443.2,405.7l-0.6-1.6c0.1,0.9,0.2,1.5,0.3,1.8C442.9,405.9,443.1,405.8,443.2,405.7z"/>
	<path class="st0" d="M453.4,109.5c0.1,0.1,0.2,0.4,0.3,0.4c0.3-1.9,0.4-6.9,0.3-13.3l-1.1-0.4L453.4,109.5z"/>
	<path class="st0" d="M456.7,68.6l0.3,1.2C456.9,69.2,456.8,68.8,456.7,68.6z"/>
	<path class="st0" d="M302.7,470c-0.2,0-0.5,0-0.7,0C302.3,470.1,302.6,470.1,302.7,470z"/>
	<path class="st0" d="M433.1,450.6l-28.2-7.4l-79.5,1.7l-63.4-3l-154.4,1l-11,2.2c-10-1.2-20.9-1.6-32.3-1.6c-2.8,0-5.7,0-8.6,0
		c-2.8,0-5.5,0.1-8.3,0.1c-0.7,0.1-1.6,0.2-2.5,0.3c-0.1-0.8-0.1-1.7,0.1-2.6c0.1-5.9,0.4-11.6,0.8-17.2l-1.9-0.7
		c-0.1-9.2,1-8.6,1.4-10.9c-0.4-85.7-2.9-174-0.5-251.1c1.2-7.4,0.5-30.1,1.8-35.9c-1.1-12.5-1.7-25.4-1.9-38.3
		c-0.1-6.5-0.2-12.9-0.2-19.3c0-1.6,0-3.2,0-4.8l0-0.8l0-0.4c0-0.5,0-1,0.1-1.5l0.2,0.3l-0.2-0.9l1-0.2c0.2,0.2,0.3,0.4,0.3,0.5
		c0.1-0.2,0.3-0.4,0.6-0.5c0.1-0.1,0.3-0.1,0.5-0.1l0.3,0l0.1,0c0,0,0,0,0.1,0l0.4,0c4.1-0.1,8.5,0,13,0.1c9,0.3,18.3,0.9,26.4,1.2
		l-1,0.2c95.2,0.3,183.6-3.1,278-0.5c12.4,0.9,25.3,1.1,38.6,1.2c6.7,0,13.4,0,20.3-0.1l2.6,0l0.3,0l0,0l0,0l0.1,0l0.4-0.1l0.9-0.1
		c0.1,0.4,0.1,0.8,0.2,1.3l0,0.1l0,0.1l0,0.5l0,2.1l0,4.1c0,2.7,0,5.5,0,8.2c-0.1,11-0.3,22-0.8,33c-0.9,4.3-1,28.4-0.9,53.9
		l24.4,23.6c0.2-5.7,0.5-11.7,0.6-17.2l-5,11.3c1.2-9,3.5-25.3,1.9-27.1l1.7-5.4c3.2-18.1-1.4-12.6-0.4-19.8l1.8-9.1l0,9
		c0.9-9,1.5-12.6,2.7-19.9c0,0,0-0.1,0-0.1c-0.1,0.5-0.2,0.8-0.3,0.9l0-1.3c-0.9-1.1-1.5-5.8-1.5-12.2c0.3-9-1.1-16.1,0.8-30.5
		l-1.9-3.6c0,0,0,0,0,0l0,0c0-0.2,0.3-3.9,0.6-7.5c0.3-4,0.6-8,0.6-8l1.5-0.9c0,4.1,0,9.1,0,14.6c0.1,3.7,0.1,7.8,0.2,11.9
		c0.1,8,0.3,16.4,0.3,23.3l0.7,0.2c0-8.1-0.7-17.3-0.5-22.6c0.3-2.3,1.5-7.9,2.5-5.6l-1.1-3.8c0-7,0-12.8-0.1-17.8
		c0-5.4,0-9.9,0-13.8c-8.5,0-15.3-0.1-24-0.4c-1.1,0-2.2-0.1-3.4-0.1c-0.6,0-1.2,0-1.8-0.1c-0.4,0-0.8,0-1.2-0.1
		c-1.5-0.1-3-0.2-4.7-0.3c-3.4-0.2-7.3-0.4-12-0.7l2.4,0.7c-5.6,0.4-11.2,0.9-12.7-0.3c-16.9-0.2-34.5-1.2-45.4-3.1l-2.4,1.8
		c-3.6-0.1-8.9-2.7-10.7-0.3l-7.6,0.8c-4.9-0.1-7.9,0.9-13.4-0.1v0c0,0,0,0,0,0c-0.3-0.1-0.7-0.1-1-0.2c0,0.1,0,0.1,0.1,0.1
		c-11.1-0.8,0.1,1.6-12.6,0.6c-4.1-1.2-4.5,2.2-10.7,1.8l-6.2-2.5C277,29.4,275,31.9,258.9,32c-7.8-0.9-11.5-3-6.4-4.9
		c-7.1,2.3-3.2,1.5-12.6,2.6c-1.4-0.9-0.4-1.1,1.6-2c-8.3-1.1-5.1,0.9-11.4,0.8c-1.8,1.8-3.9,4.6-6,4.7l2.4,0.6
		c-6.7,1-13.9,1.4-21.7,0.5l0.3-0.9l-8.2,0.5l-0.5-1.1L184.6,33l1.6,0.3c-2.8,0.2-11.8,0.5-17-0.1l0.2-0.6
		c-14.6-2-26.7,0.6-43.9,0.8l2.3-1.3c-5.8-1.3-1.6,2-8.6,1.4l-0.3-1.6c-6.1,2.1-7.9-0.4-12.1-1.2l2,2.1l-8-0.4
		c-8.8-0.7-5.4-2.6-4.1-3.7l-6,1.7l-1.2-1.8c-4.4,2.2-4.4-0.3-12,0.8c-0.6-0.7,1.3-1.1-1.3-1.4l-12.6,2.6l7.6-1.2l-0.9,2.7
		c-7.9,2.1-10.7-0.3-16.4,0.5l3.9-0.8c-4.6,0.3-7,0.2-9-0.1c-0.5-0.1-0.9-0.1-1.4-0.2c-0.8-0.1-1.5-0.2-2.4-0.3
		c-1.6-0.2-3.5-0.4-5.9-0.5c3.1,0.5,7.3,1.2,1,1.6c-4.6,0.1-2.8-0.9-7.6-1.2c-0.1,0.7-1.9,1.3-4.6,1.7c-2.7,0.4-6.2,0.6-10.3,0.5
		c0,2-0.1,3.9-0.3,5.8c-0.3-0.3-0.5-0.7-0.7-1.5c0.3,2.9,0.8,4.5,0.3,8.7c0,0-0.5-1-1-1.9c-0.5-1-1-2-1-2s0.5,2.5,1,5.1
		c0.5,2.4,1,4.8,1,4.8c-0.3,2.8,0,6.5,0.1,9.2c0.1,1.6,0.1,2,0,2.5c-0.1,0.5-0.2,0.7-0.6,0.6c0,0-0.1-0.5-0.2-1
		c-0.1-0.2-0.1-0.5-0.1-0.7c0-0.1,0-0.2,0-0.3c0-0.1,0-0.1,0-0.1l-0.5,26l-1.6,0.4c2.2,2.6-0.8,14.1,1.9,13.3
		c-1.5,4.9,1.1,19.2-2,16.4c-0.2,17,2.7,26.2,1.2,46.9c-2.6,7.4-1.8,27.5-2.1,40.8c1.1,25.9,2.1,42.7,2.9,69.2
		c-3.7,15.9,1.3,39.8-0.8,56.9l1.5,4.7c-2.3,11.4,0.5,28.8-1.7,44.8c0.6,3.9,0.8,6,0.9,6.9c0.1-0.7,0.3-1.8,1.3-2.2
		c-0.7,4.6,0.2,13.8-1.7,13.2l-0.2-1.2c-1.9-0.7,0.9,13.9-0.7,19l2-2.8l-0.3,8.7l-0.4-2.3c0.4,3.8,0.8,7.4,1,10.9
		c0.1,1.7,0.2,3.4,0.3,5c0,0.8,0.1,1.6,0.1,2.4c0,0.4,0,0.8,0,1.2c0,0.5,0,0.9,0,1.4c0.2,10.5,0.1,20-0.1,29.5
		c12.2,0.3,23.8,0.5,36.3,0.8c8.3,0.1,17.1-0.2,27.6-1.4c-4.7,2.2,7-1.1,7.4,1.2c8.9,3,16.5-0.6,23.8-1.4c0-0.1,0.1-0.3,0.5-0.4
		l12.8,0.3c-7.6,3,9.2-2.5,2.2,0.1c33.3,2.2,76.7,0,115.2,1l-1.7-0.8c9.8,0.1,21.9-0.8,29.3,0.4c7.4,1.2,16.2-2,19.1-2.1
		c7.3-1.2,13.9,0.8,12.8,1.1c8.4-0.5,16.5-3,28.2-1.9c4.1,2.5,32.9-2.5,33.2,0.4l0.1-0.2c15.4,2,30-1.4,46.6,0.4
		c0,0-0.3,0.2-0.9,0.4l33.8-8.7l-8.7-8.6c-0.6,4.3-1,7.2-1,7.2C433.7,457.5,433.4,454.4,433.1,450.6z"/>
	<path class="st0" d="M450.9,63.2L450.9,63.2C450.9,63.2,450.9,63.2,450.9,63.2z"/>
	<path class="st0" d="M433.1,450.6c0.3,3.8,0.6,6.9,1,8.4c0,0,0.4-2.9,1-7.2l-0.9-0.9L433.1,450.6z"/>
	<path class="st0" d="M427.8,369.3l-0.1,0.9C427.7,369.8,427.8,369.5,427.8,369.3z"/>
	<path class="st0" d="M429,355.8c-0.3,2.8-0.6,5.8-1,8.9h-0.2c0,1.7,0.4,1.8,0,4.6l1.2-8.2c0.6,5.4,1.6,10.1,1.8,17.3
		c-0.2,1.5-0.7,2.1-1.1,2.2l0.4,17.7l-1.5,5.4c0.8,5.4,3.9,2.9,2.1,17.4c2.1-5.4,1.3,7.2,2.4,5.4c-0.3,0.7-0.7,2.4-1,3.7
		c0.2,5.4,0.5,13.9,0.9,20.4l1.1,0.3l0.9,0.9c1.5-10.4,4.2-29,5.8-35.4c-0.6,12.1,0.3,3.2,1,0.8l-0.5-0.8c0.5-7.2,1.9-7.2,2.2-10.9
		c-0.1,0-0.2,0.1-0.4,0.2l0.2,0.5c-0.2,0.3-0.4,0.1-0.5-0.2c-0.3,0.1-0.5-0.2-0.4-2.2l0.1,0.4c-0.2-3,0-8.3,0.1-10.5l1.1,0
		c-2.1-5.4,3.3-36.1,3.3-43.3c0.6-3,0.6-6.3,0.5-9.8L429,355.8z"/>
	<path class="st0" d="M429.8,380.7l0-0.4C429,380.3,429.3,380.9,429.8,380.7z"/>
	<path class="st0" d="M451.1,170.2c0,0.2,0,0.4,0,0.7l1.1-2.5L451.1,170.2z"/>
	<path class="st0" d="M431.3,430.1c-0.1,3.2,0.4,2,0.9,0.1c-0.1-3.2-0.1-5.5-0.1-5.5C431.9,426.5,431.4,428.3,431.3,430.1z"/>
	<path class="st0" d="M441.8,417.2l0.6,1C442.3,416.3,442.1,416.4,441.8,417.2z"/>
	<path class="st0" d="M451.7,305c0.2-6.1,0.1-6.3-0.3-5.5C451.4,301.7,451.5,303.6,451.7,305z"/>
</g>
</svg>
