<?xml version="1.0" encoding="utf-8"?>
<!-- Generator: Adobe Illustrator 19.2.1, SVG Export Plug-In . SVG Version: 6.00 Build 0)  -->
<svg version="1.1" id="Layer_1" xmlns="http://www.w3.org/2000/svg" xmlns:xlink="http://www.w3.org/1999/xlink" x="0px" y="0px"
	 viewBox="0 0 250 75" style="enable-background:new 0 0 250 75;" xml:space="preserve">
<style type="text/css">
	.st0{fill:#1C2028;}
</style>
<g>
	<path class="st0" d="M24.8,13.7c-13.2,0-23.8,10.7-23.8,23.8c0,1.1,0.1,2.1,0.2,3.2c0.1,0,0.1,0.1,0.2,0.1c0.2,0.1,0.5,0.3,0.9,0.4
		c0.8,0.3,2,0.4,3.3,0.4c2.6,0,5.7-0.6,8.8-1.4c6.3-1.5,12.5-3.4,16.9-5.3c0.3-0.1,0.5-0.2,0.8-0.3c0.2-0.1,0.4-0.2,0.7-0.3
		c0.1,0,0.2-0.1,0.3-0.1c0.2-0.1,0.3-0.2,0.5-0.2c0.3-0.1,0.4-0.2,0.4-0.2l-1.1-2.2c2.4,1,4.9,2,7.6,2.2c-0.2,2.9-1.3,5.7-2.4,8.5
		L37,40.2c0,0-0.2,0.1-0.5,0.2c-0.1,0.1-0.3,0.2-0.5,0.2c-0.1,0-0.2,0.1-0.3,0.2c-0.2,0.1-0.5,0.2-0.7,0.3c-0.3,0.1-0.6,0.2-0.9,0.4
		c-4.8,2-11.4,4-17.9,5.6c-3.3,0.8-6.8,1.6-10.4,1.6c-0.6,0-1.3,0-2-0.1c4,7.6,11.9,12.7,21.1,12.7c13.2,0,23.8-10.7,23.8-23.8
		S37.9,13.7,24.8,13.7z"/>
	<path class="st0" d="M74,15.8H62.6v45.6h11.1v-9h1.7c13.4,0,19.2-8.8,19.2-18.3C94.6,24.6,89,15.8,74,15.8z M75.9,41.5h-2.2V26.6
		h2.2c5.1,0,7.8,3.1,7.8,7.4C83.7,38.3,81,41.5,75.9,41.5z"/>
	<path class="st0" d="M184.2,41.5l-14.7-25.8h-11.2v41.7c3.7,0,7.5,0.1,11.2,0.2V35.3l13,22.8c4.3,0.2,8.6,0.5,12.9,0.8V15.8h-11.2
		V41.5z"/>
	<path class="st0" d="M131.7,15.8l-12.7,35h-13V15.7H94.9v44.1c10.8-0.9,21.8-1.6,33.1-2l0.7-2.1h17.6l0.6,1.7c1.3,0,2.5,0,3.8,0
		c2.5,0,5,0,7.5,0l-14.9-41.6H131.7z M131.5,47l5.9-18l5.9,18H131.5z"/>
	<path class="st0" d="M219.9,15.7v0.2h-10.8v44.2c3.8,0.3,7.5,0.7,11.2,1.1V26.3h8.8v35.1h11.1V26.3h9.2V15.7H219.9z"/>
</g>
</svg>
