<?xml version="1.0" encoding="utf-8"?>
<!-- Generator: Adobe Illustrator 19.2.1, SVG Export Plug-In . SVG Version: 6.00 Build 0)  -->
<svg version="1.1" id="Layer_1" xmlns="http://www.w3.org/2000/svg" xmlns:xlink="http://www.w3.org/1999/xlink" x="0px" y="0px"
	 viewBox="0 0 500 500" style="enable-background:new 0 0 500 500;" xml:space="preserve">
<style type="text/css">
	.st0{fill:#231F20;}
</style>
<g>
	<path class="st0" d="M14.2,399C14.1,399.8,14.2,400.2,14.2,399L14.2,399z"/>
	<path class="st0" d="M243.9,11.6c0.2,0,0.3,0,0.6,0c0.4-0.4,0.8-0.7,1.2-1L243.9,11.6z"/>
	<path class="st0" d="M338,14.1c0.2,0,0.4,0.1,0.6,0.1C338.6,14,338.7,13.7,338,14.1z"/>
	<path class="st0" d="M15,18.3c0,1.4,0.1,2.2,0.2,2.9C15.1,20.3,15,19.4,15,18.3z"/>
	<path class="st0" d="M125.4,487.4c0,0-0.2,0-0.4,0c0.3,0.1,0.7,0.1,1,0.2L125.4,487.4z"/>
	<path class="st0" d="M123.5,488.1c-2.1-0.3,0.6-0.6,1.5-0.6c-2.3-0.5-4.6-0.6-6.9-0.3C118.1,487.8,122.5,487.7,123.5,488.1z"/>
	<path class="st0" d="M438.2,485.7l-0.9,0.2C437.6,485.9,437.9,485.8,438.2,485.7z"/>
	<path class="st0" d="M46.4,45.6c0,0.1-0.1,0.1-0.1,0.1C46.4,45.8,46.4,45.7,46.4,45.6z"/>
	<path class="st0" d="M388.8,485.1l-0.5,1C388.7,485.7,388.8,485.4,388.8,485.1z"/>
	<path class="st0" d="M245.7,10.6l0.7-0.4C246.1,10.3,245.9,10.4,245.7,10.6z"/>
	<path class="st0" d="M425,14.7c0,0.3,0.2,0.5,0.5,0.7c0.1,0,0.2,0,0.2,0L425,14.7z"/>
	<path class="st0" d="M473.5,417.8c0.1,0,0.2-0.1,0.4-0.2l-0.7-1.7C473.2,416.7,473.3,417.3,473.5,417.8z"/>
	<path class="st0" d="M484.8,98.8c0.1,0.1,0.2,0.4,0.3,0.4c0.3-2,0.4-7.4,0.4-14.3l-1.2-0.4L484.8,98.8z"/>
	<path class="st0" d="M456.8,229.2l2.4-12.7c1.1,40.8-1.3,59.8,0.6,94.8l-0.5-1.9c-0.6,5.1,4.9,8-1.8,64.1h-0.2
		c0,1.9,0.5,1.9-0.1,5.8l1.5-9.7c0.6,5.8,1.8,10.9,1.9,18.7c-0.3,1.6-0.8,2.2-1.2,2.4l0.4,19l-1.6,5.8c0.8,5.8,4.1,3.2,2.3,18.7
		c2.3-5.9,1.4,7.7,2.5,5.8c-0.3,0.8-0.7,2.6-1.1,4c0.3,9.2,0.9,26.7,2.1,31c0,0,4.8-36.2,7.3-45.9c-0.6,13,0.3,3.4,1,0.9l-0.6-0.9
		c0.6-7.8,2-7.8,2.4-11.7c-0.1,0-0.3,0.1-0.4,0.2l0.2,0.5c-0.3,0.4-0.4,0.2-0.6-0.3c-0.3,0.1-0.6-0.3-0.5-2.4l0.2,0.4
		c-0.2-3.3,0-8.9,0.1-11.3l1.2,0c-2.3-5.8,3.5-38.9,3.6-46.6c1.5-7.8-0.4-17.5,0.4-27.2c0.4-15.5,1.8-7.8,2.8-15.5
		c0.8-9.7-1.4,2-1.5-1.9l1.7-11.7c0.1,6.8,0.9,3.1,1.3,1.9c0.2-10.1,2.4-26,0-29.1c1.2-13.6,2.1-13.6,2.2-19.5
		c-0.4,2-0.8,5.8-1.3,5.9c1.1-5.4-0.3-2.6-0.5-0.4c-1-8.3,4.4-43.1,1.7-44.8h0.5c-2-1.9-3.9,1.2-5-4.6l0.9-3.9l-0.8-5.8
		c0.6-3.9,1.2-2,1.4-2c-0.9-9.5,0.2-22.7,0.4-34.2L477,177c1.2-9.7,3.8-27.2,2-29.1l1.8-5.8c3.4-19.5-1.5-13.6-0.5-21.3l2-9.8l0,9.7
		c1-9.7,1.6-13.6,2.9-21.4c0,0,0-0.1-0.1-0.1c-0.1,0.5-0.2,0.9-0.3,1l0-1.4c-1-1.2-1.7-6.2-1.6-13.1c0.3-9.7-1.2-17.3,0.9-32.9
		l-2-3.9c0,0.4,0.3-3.8,0.6-8c0.3-4.3,0.6-8.6,0.6-8.6l1.6-0.9c0,4.4,0,9.8,0,15.7c0.1,4,0.1,8.4,0.2,12.8c0.2,8.6,0.3,17.7,0.4,25
		l0.7,0.3c0-8.7-0.7-18.6-0.6-24.4c0.3-2.8,2-10,3.1-4.8l-1.6-5.4c0-7.5-0.1-13.8-0.1-19.1c0-5.8,0-10.6,0-14.9
		c-9.2,0-16.5-0.1-25.9-0.4c-1.2,0-2.4-0.1-3.6-0.1c-0.6,0-1.3,0-1.9-0.1c-0.4,0-0.9,0-1.3-0.1c-1.6-0.1-3.3-0.2-5.1-0.3
		c-3.6-0.2-7.8-0.5-12.9-0.8l2.6,0.8c-6,0.5-12,0.9-13.7-0.4c-18.2-0.3-37.1-1.3-48.9-3.3l-2.6,1.9c-3.8-0.1-9.6-3-11.5-0.3
		l-8.2,0.8c-5.3-0.1-8.5,0.9-14.5-0.1v0c0,0,0,0,0,0c-0.4-0.1-0.8-0.1-1.1-0.2c0,0.1,0,0.1,0.1,0.2c-11.9-0.8,0.1,1.7-13.5,0.6
		c-4.4-1.3-4.8,2.4-11.5,2l-6.7-2.7c-12-1.6-14.1,1.2-31.5,1.2c-8.4-1-12.4-3.3-6.9-5.3c-7.6,2.5-3.5,1.6-13.6,2.8
		c-1.6-1-0.5-1.2,1.8-2.2c-9-1.2-5.5,0.9-12.3,0.9c-2,1.9-4.2,5-6.4,5.1l2.6,0.6c-7.2,1-15,1.5-23.3,0.5l0.3-1l-8.9,0.5l-0.6-1.2
		l-12.7,0.4l1.7,0.3c-3,0.2-12.7,0.6-18.3-0.1l0.2-0.7c-15.8-2.1-28.7,0.7-47.2,0.9l2.4-1.4c-6.3-1.4-1.7,2.2-9.2,1.5l-0.4-1.7
		c-6.6,2.3-8.5-0.5-13.1-1.3l2.1,2.3l-8.6-0.5c-9.4-0.7-5.8-2.8-4.4-4l-6.4,1.8l-1.3-2c-4.7,2.3-4.7-0.4-12.9,0.9
		c-0.7-0.8,1.4-1.2-1.4-1.5l-13.5,2.8l8.2-1.2l-1,2.9C64.1,17.6,61.1,15,55,15.8l4.2-0.9c-5,0.4-7.6,0.2-9.6-0.1
		c-0.5-0.1-1-0.2-1.5-0.3c-0.8-0.1-1.7-0.2-2.5-0.3c-1.8-0.2-3.7-0.4-6.3-0.6c3.3,0.5,7.9,1.3,1.1,1.7c-5,0.2-3-1-8.1-1.3
		c-0.1,0.8-2.1,1.4-4.9,1.8c-2.9,0.4-6.7,0.6-11,0.6c0,2.1-0.1,4.2-0.3,6.3c-0.3-0.4-0.5-0.8-0.7-1.7c0.3,3.1,0.8,4.8,0.3,9.4
		c0,0-0.5-1-1.1-2.1c-0.5-1.1-1.1-2.2-1.1-2.2s0.5,2.7,1,5.5c0.5,2.6,1,5.2,1,5.2c-0.3,3-0.1,7,0.1,9.9c0.1,1.7,0.1,2.1,0,2.7
		c-0.1,0.5-0.2,0.7-0.6,0.6c0,0-0.1-0.5-0.2-1c-0.1-0.3-0.1-0.5-0.1-0.7c0-0.1,0-0.2,0-0.3c0-0.1,0-0.2,0-0.2L14,76l-1.7,0.4
		c2.4,2.8-0.9,15.2,2.1,14.3c-1.6,5.3,1.1,20.7-2.2,17.6c-0.3,18.3,3,28.2,1.3,50.4c-2.8,7.9-1.9,29.6-2.2,43.9
		c1.2,27.9,2.2,45.9,3.2,74.5c-4,17.2,1.4,42.8-0.9,61.3l1.6,5.1c-2.5,12.3,0.6,31-1.9,48.2c0.7,4.2,0.9,6.4,1,7.4
		c0.1-0.8,0.4-2,1.4-2.3c-0.7,4.9,0.2,14.9-1.8,14.2l-0.2-1.2c-2-0.7,0.9,14.9-0.8,20.4l2.1-3l-0.4,9.3l-0.4-2.5
		c0.5,4.1,0.8,8,1.1,11.7c0.1,1.8,0.2,3.6,0.3,5.4c0,0.9,0.1,1.7,0.1,2.6c0,0.4,0,0.9,0,1.3c0,0.5,0,1,0,1.5
		c0.2,11.3,0.1,21.6-0.1,31.8c13.2,0.3,25.6,0.5,39.1,0.8c8.9,0.1,18.5-0.2,29.7-1.5c-5,2.3,7.5-1.2,8,1.3
		c9.6,3.2,17.7-0.7,25.6-1.5c0-0.1,0.1-0.3,0.5-0.5l13.7,0.3c-8.2,3.2,9.9-2.7,2.4,0.1c35.8,2.4,82.5,0,124,1.1l-1.8-0.8
		c10.5,0.2,23.6-0.8,31.6,0.5c8,1.3,17.4-2.1,20.5-2.2c8.7-1.4,16.7,1.4,12.9,1.3c9.3-0.4,18.1-3.3,31.1-2.1
		c4.4,2.7,35.4-2.7,35.8,0.4l0.1-0.3c16.6,2.2,32.3-1.5,50.2,0.4c0,0-0.3,0.2-0.9,0.4l36.4-9.3l-10.4-10.3l-31.6-8.3l-85.5,1.8
		l-68.3-3.3l-166.1,1.1l-11.9,2.3c-10.8-1.3-22.5-1.7-34.7-1.7c-3,0-6.1,0-9.2,0c-3,0-6,0.1-9,0.1c-0.8,0.1-1.7,0.2-2.7,0.3
		c-0.1-0.9-0.1-1.9,0.1-2.8c0.1-6.3,0.4-12.5,0.9-18.5l-2-0.7c-0.1-9.9,1.1-9.2,1.5-11.7c-0.4-92.2-3.1-187.2-0.6-270.2
		c1.3-8,0.5-32.3,1.9-38.6c-1.2-13.5-1.8-27.4-2.1-41.2c-0.1-6.9-0.2-13.9-0.2-20.8c0-1.7,0-3.4,0-5.2l0-0.8l0-0.4
		c0-0.6,0.1-1.1,0.1-1.6l0.2,0.3l-0.2-1l1-0.2c0.2,0.2,0.3,0.4,0.4,0.6c0.1-0.2,0.4-0.4,0.7-0.5c0.2-0.1,0.3-0.1,0.5-0.1l0.3,0
		l0.1,0c0,0,0,0,0.1,0l0.4,0c4.4-0.1,9.1,0,13.9,0.2c9.6,0.3,19.7,0.9,28.4,1.3l-1,0.2C192.3,46.9,287.4,43.2,389,46
		c13.3,0.9,27.2,1.2,41.5,1.2c7.2,0,14.4,0,21.8-0.1l2.8,0l0.3,0l0,0l0,0l0.1,0l0.4-0.1l1-0.2c0.1,0.4,0.2,0.9,0.2,1.4l0,0.1l0,0.1
		l0,0.6l0,2.2l0,4.4c0,2.9,0,5.9,0,8.9c-0.1,11.8-0.3,23.7-0.9,35.5C454.3,109.9,455.8,219.5,456.8,229.2z"/>
	<path class="st0" d="M459.4,390.6l0-0.4C458.6,390.2,458.9,390.8,459.4,390.6z"/>
	<path class="st0" d="M482.4,164.1c0,0.2,0,0.5,0,0.7l1.2-2.7L482.4,164.1z"/>
	<path class="st0" d="M483.1,309.2c0.3-6.5,0.1-6.8-0.3-5.9C482.7,305.6,482.8,307.7,483.1,309.2z"/>
	<path class="st0" d="M461,443.8c-0.1,3.4,0.4,2.1,1,0.1c-0.1-3.5-0.2-5.9-0.2-5.9C461.7,439.9,461.2,441.9,461,443.8z"/>
	<path class="st0" d="M472.4,429.9l0.7,1.1C472.9,428.9,472.7,429,472.4,429.9z"/>
</g>
<g>
	<line class="st0" x1="124.6" y1="124.6" x2="375.4" y2="375.4"/>
	<g>
		<path class="st0" d="M208.4,187.6C208.3,187.5,208.2,187.5,208.4,187.6L208.4,187.6z"/>
		<path class="st0" d="M292.7,267.8C292.7,267.8,292.8,267.8,292.7,267.8c0.4-0.2,0.7-0.3,1-0.5L292.7,267.8z"/>
		<path class="st0" d="M304.2,282.8c0,0.1,0,0.1,0,0.2C304.3,282.8,304.5,282.6,304.2,282.8z"/>
		<path class="st0" d="M259.6,240c-0.1-0.1-0.2-0.1-0.4-0.1C259.3,239.9,259.5,239.9,259.6,240z"/>
		<path class="st0" d="M182.6,164.9C182.6,164.9,182.7,164.9,182.6,164.9c0.1-0.1,0.1-0.2,0.1-0.3L182.6,164.9z"/>
		<path class="st0" d="M183.4,164.7c0.1,0.5-0.5,0.3-0.7,0.3c-0.1,0.7,0.2,1.1,0.7,1.2C183.9,165.7,183.2,165.1,183.4,164.7z"/>
		<path class="st0" d="M137.4,122.1l0.3,0C137.6,122,137.5,122.1,137.4,122.1z"/>
		<path class="st0" d="M239.4,262.7c-0.1,0-0.2-0.1-0.3-0.1C239.2,262.7,239.3,262.7,239.4,262.7z"/>
		<path class="st0" d="M143.9,129.5l0.8-0.6C144.3,129.1,144.1,129.3,143.9,129.5z"/>
		<path class="st0" d="M293.7,267.3l0.4-0.2C293.9,267.2,293.8,267.2,293.7,267.3z"/>
		<path class="st0" d="M315.9,295.5c-0.2,0.2-0.3,0.4-0.5,0.6c0,0,0,0,0,0L315.9,295.5z"/>
		<path class="st0" d="M366.6,368.1c0.1-0.1,0.2-0.2,0.2-0.3l-0.7,0.2C366.2,368.1,366.4,368.2,366.6,368.1z"/>
		<path class="st0" d="M329.7,315.2c0.1-0.1,0.2-0.1,0.3-0.2c-0.1-0.5-0.8-1.3-1.8-2.3l-0.9,0.8L329.7,315.2z"/>
		<path class="st0" d="M328.2,353.4l-0.1-3.5c6.5,5,7.5,9.3,13.8,12.9l-0.6,0.1c0.3,1.1,4.6-2.3,7.8,10.3l-0.2,0.2
			c0.3,0.2,0.6-0.1,0.7,0.9l-0.3-2.4c1.2,0.4,2.8,0.3,4,1.3c0,0.4-0.2,0.9-0.5,1.1l3,2.4l-0.3,1.9c1.4,0.2,3.4-2.5,4.3,1
			c0.8-2.4,2.1,0.1,2.6-1c-0.1,0.3-0.1,0.9-0.2,1.3c1.5,1.1,4.4,3.1,5.8,2.9c0,0-1.7-8.5-1.3-11.6c1.4,2.3,0.7,0.3,0.9-0.6l-0.5,0.3
			c-0.7-1.5,0.3-2.5,0.1-3.3c-0.1,0.1-0.2,0.2-0.3,0.3l0.2-0.1c-0.1,0.2-0.3,0.3-0.4,0.4c-0.2,0.2-0.4,0.4-0.7,0l0.2,0
			c-0.6-0.3-1.2-1.3-1.5-1.7l0.8-0.9c-2.4,0.8-3-7.9-4-9.1c0-2.2-2.7-2.2-3.6-4.1c-1.9-2.5,0.2-2.3-0.2-4.2
			c-0.8-1.9-0.7,1.3-1.3,0.8l-0.5-2.8c1.1,0.9,1.1-0.2,1.2-0.7c-1.3-1.6-1.9-5.4-4.1-4.1c-1.1-2.7-0.4-3.4-1.2-4.3
			c0,0.6,0.2,1.4-0.1,1.8c0-1.5-0.6-0.2-0.4,0.3c-1.9-0.4-3-9.2-5.1-7.5l0.3-0.3c-1.7,1.1-2.6,2.9-4.2,2.9l0.1-1.2l-1.4-0.2
			c-0.1-1,0.5-1.1,0.7-1.3c-2-0.7-3.1-3.3-4.5-5.1l-2.1,5.5c-0.5-2.2-1.2-6.5-2.7-5.5l0.5-2.1c-0.3-5.2-3-0.9-3.3-2.7l0-2.8l1.3,1.4
			c-0.7-2.1-0.8-3.1-0.9-5.1c0,0,0,0,0,0c0,0.1,0,0.2-0.1,0.3l-0.2-0.2c-0.9,0.5-2,0.3-3-0.7c-1.2-1.6-3.3-1.6-4-5.3l-2,0.9
			l-0.8-2.5l1.1-1.1c1.5,1.7,5,4.3,7.1,6.3l0.6-0.5c-1.2-1.2-3.1-2.1-3.8-3c-0.2-0.6,0-2.8,1.5-2.8l-1.9,0.4c-4.2-4-4.3-3.9-7.3-9.5
			l-0.2,0.9c-1.2-0.5-2.3-1-1.7-2.2c-2.4-2.7-4.3-6.1-4.5-9.2l-1.7,1c-0.5-0.6,0.7-3.4-1.4-1.8l-1.7-0.6c-0.6-0.8-1.9-0.5-1.9-2.1
			c0,0,0,0,0,0c0,0,0,0,0,0c0-0.1,0-0.2,0-0.3c0,0-0.1,0.1-0.1,0.1c-1.1-2.3-1.2,1.2-2.3-1.5c0.3-1.6-2.4,1-3-0.2l1-2.8
			c-0.6-2.8-2.8-1.2-5.3-3.6c-0.5-1.9,0.6-4.1,2.8-4.7c-2.8,0.7-1.6,0.7-3.9,0.1c0.5-0.9,0.8-0.9,1.8-1.3c-0.4-2.1-1.4-0.1-2.3-1.1
			c-1.6,1.1-4.1,2.9-4.5,2.7l-0.1,0.8c-1.7-0.3-3.2-1-3.7-2.9l0.7-0.6l-1.6-0.9l0.8-1l-2.1-1.5l0,0.5c-0.5-0.3-2.2-1.4-2.5-2.6
			l0.5-0.5c-0.7-3.7-4.5-3.6-7.3-6l1.3-0.6c0.1-1.9-1.8,1.3-2.3-0.3l1.2-1.3c-2.5,0.7-0.9-1.5-0.9-2.8l-1.3,1.9l-0.9-1.5
			c-0.8-1.9,1.2-2.8,2.2-3.5l-2.2,0.4l1.2-1.6c-2.3,1-0.4-0.9-2.4-1.2c0.4-0.6,1-0.6,0.9-1.3l-3.9,0.1l2,0.3l-2.2,1.9
			c-2.8,0.4-1.4-1.8-2.8-2.1l1.2,0c-1.9-0.9-1.1-1.8-1.4-3.1c-0.1,0.6-0.3,1.6-1.2,1.3c-0.5-0.3,0.5-0.9,0.3-1.6
			c-1.5,1.3-3.2,1-3.5-0.6c0.2-0.2,0.4-0.4,0.6-0.4c-0.5,0-0.9,0.2-1-0.5l1.8-1.3l-2.2,0.7c-0.1-0.9-2-0.6-0.9-1.5l0.6,0l-3.6-4.3
			l1.2-1.3c-2.1,1.3-1.5-2.8-3.5-0.6c0.4-1.9-3.7-2.1-0.9-4c-2.4-2.8-6.1-1.9-8-6.2c0.9-3.1-2.8-5.5-4.6-7.7
			c-4.8-3.1-8.1-4.9-12.7-8.2c0.4-5.2-7-5.1-8-9.2l-1.8,0.4c0-3.5-4.8-4-5.5-8.1c-1.1-0.1-1.5-0.3-1.7-0.4c0.1,0.2,0,0.5-0.6,1.3
			c-0.2-1.2-2.2-2-0.7-3.3l0.3,0c1.5-1.3-2.8-1.4-2.3-3.4l-1.1,1.9l-1.1-1.6l0.6,0.1c-9-2.3-6.8-9.7-15.2-12
			c2.4-0.9-1.9-0.2-0.2-2.1c0.9-3.6-3-2-4.7-2.5c-0.1,0.1-0.2,0.2-0.4,0.3l-1.7-2.1c3.4-1.1-3.3,0.5-0.3-0.4
			c-3.3-6.7-11.6-11.6-16.7-18.2l-0.3,0.8c-1.4-1.6-3.9-2.7-4.1-4.8c-0.2-2.1-3.9-1-4.5-1.3c-2.2-0.2-1.4-3.3-0.9-2.7
			c-1.6-1-4.9-0.2-5.8-2.9c1.3-2.6-6.9-3.1-4.8-5.3l-0.2,0.2c-0.8-3.9-5.6-3.5-6.7-7.4c0,0,0.2-0.1,0.4-0.2l-11.7,1.5l-5.8,8.7
			l-1.5,10.3l13.3,10.8l7.3,11.9l24.1,22.6l3.3,0c1.7,7.5,10.9,10,13.8,17l1.5-1.3c1.5,1.3,0.5,2.1,0.6,2.7
			c13.3,12.7,28.5,24.1,38.4,37.6c0.2,2.1,4.2,4.9,4.1,6.8c5.5,2.1,9.5,6.1,13.1,10.1l-0.3,0l2.1,1.5c0,0.2-0.2,0.4-0.4,0.4
			c3.3,0.8,5.2,5.2,7.2,8.2l-0.3,0c14.1,14.7,30.2,25.4,42.5,41.7c4.3,8.9,15.2,13.5,21,23C309.7,338.3,326.2,352.7,328.2,353.4z"/>
		<path class="st0" d="M352.8,374.2L352.8,374.2C352.1,374.8,352.5,374.6,352.8,374.2z"/>
		<path class="st0" d="M337.2,326.2c0,0,0.1,0.1,0.1,0.1l0.5-1.2L337.2,326.2z"/>
		<path class="st0" d="M358.1,346.1c-0.7-1.1-0.9-1-1-0.6C357.3,345.8,357.7,346,358.1,346.1z"/>
		<path class="st0" d="M361.4,380.6c0.4,0.5,0.6,0,0.7-0.7c-0.6-0.4-0.9-0.7-0.9-0.7C361.3,379.6,361.3,380.2,361.4,380.6z"/>
		<path class="st0" d="M367.5,370.6l0.6-0.3C367.7,370.1,367.6,370.3,367.5,370.6z"/>
	</g>
</g>
<g>
	<line class="st0" x1="124.6" y1="375.4" x2="375.4" y2="124.6"/>
	<g>
		<path class="st0" d="M187.6,291.6C187.5,291.7,187.5,291.8,187.6,291.6L187.6,291.6z"/>
		<path class="st0" d="M267.8,207.3C267.8,207.3,267.8,207.2,267.8,207.3c-0.2-0.4-0.3-0.7-0.5-1L267.8,207.3z"/>
		<path class="st0" d="M282.8,195.8c0.1,0,0.1,0,0.2,0C282.8,195.7,282.6,195.5,282.8,195.8z"/>
		<path class="st0" d="M240,240.4c-0.1,0.1-0.1,0.2-0.1,0.4C239.9,240.7,239.9,240.5,240,240.4z"/>
		<path class="st0" d="M164.9,317.4C164.9,317.4,164.9,317.3,164.9,317.4c-0.1-0.1-0.2-0.1-0.3-0.1L164.9,317.4z"/>
		<path class="st0" d="M164.7,316.6c0.5-0.1,0.3,0.5,0.3,0.7c0.7,0.1,1.1-0.2,1.2-0.7C165.7,316.1,165.1,316.8,164.7,316.6z"/>
		<path class="st0" d="M122.1,362.6l0-0.3C122,362.4,122.1,362.5,122.1,362.6z"/>
		<path class="st0" d="M262.7,260.6c0,0.1-0.1,0.2-0.1,0.3C262.7,260.8,262.7,260.7,262.7,260.6z"/>
		<path class="st0" d="M129.5,356.1l-0.6-0.8C129.1,355.7,129.3,355.9,129.5,356.1z"/>
		<path class="st0" d="M267.3,206.3l-0.2-0.4C267.2,206.1,267.2,206.2,267.3,206.3z"/>
		<path class="st0" d="M295.5,184.1c0.2,0.2,0.4,0.3,0.6,0.5c0,0,0,0,0,0L295.5,184.1z"/>
		<path class="st0" d="M368.1,133.4c-0.1-0.1-0.2-0.2-0.3-0.2l0.2,0.7C368.1,133.8,368.2,133.6,368.1,133.4z"/>
		<path class="st0" d="M315.2,170.3c-0.1-0.1-0.1-0.2-0.2-0.3c-0.5,0.1-1.3,0.8-2.3,1.8l0.8,0.9L315.2,170.3z"/>
		<path class="st0" d="M353.4,171.8l-3.5,0.1c5-6.5,9.3-7.5,12.9-13.8l0.1,0.6c1.1-0.3-2.3-4.6,10.3-7.8l0.2,0.2
			c0.2-0.3-0.1-0.6,0.9-0.7l-2.4,0.3c0.4-1.2,0.3-2.8,1.3-4c0.4,0,0.9,0.2,1.1,0.5l2.4-3l1.9,0.3c0.2-1.4-2.5-3.4,1-4.3
			c-2.4-0.8,0.1-2.1-1-2.6c0.3,0.1,0.9,0.1,1.3,0.2c1.1-1.5,3.1-4.4,2.9-5.8c0,0-8.5,1.7-11.6,1.3c2.3-1.4,0.3-0.7-0.6-0.9l0.3,0.5
			c-1.5,0.7-2.5-0.3-3.3-0.1c0.1,0.1,0.2,0.2,0.3,0.3l-0.1-0.2c0.2,0.1,0.3,0.3,0.4,0.4c0.2,0.2,0.4,0.4,0,0.7l0-0.2
			c-0.3,0.6-1.3,1.2-1.7,1.5l-0.9-0.8c0.8,2.4-7.9,3-9.1,4c-2.2,0-2.2,2.7-4.1,3.6c-2.5,1.9-2.3-0.2-4.2,0.2
			c-1.9,0.8,1.3,0.7,0.8,1.3l-2.8,0.5c0.9-1.1-0.2-1.1-0.7-1.2c-1.6,1.3-5.4,1.9-4.1,4.1c-2.7,1.1-3.4,0.4-4.3,1.2
			c0.6,0,1.4-0.2,1.8,0.1c-1.5,0-0.2,0.6,0.3,0.4c-0.4,1.9-9.2,3-7.5,5.1l-0.3-0.3c1.1,1.7,2.9,2.6,2.9,4.2l-1.2-0.1l-0.2,1.4
			c-1,0.1-1.1-0.5-1.3-0.7c-0.7,2-3.3,3.1-5.1,4.5l5.5,2.1c-2.2,0.5-6.5,1.2-5.5,2.7l-2.1-0.5c-5.2,0.3-0.9,3-2.7,3.3l-2.8,0
			l1.4-1.3c-2.1,0.7-3.1,0.8-5.1,0.9c0,0,0,0,0,0c0.1,0,0.2,0,0.3,0.1l-0.2,0.2c0.5,0.9,0.3,2-0.7,3c-1.6,1.2-1.6,3.3-5.3,4l0.9,2
			l-2.5,0.8l-1.1-1.1c1.7-1.5,4.3-5,6.3-7.1l-0.5-0.6c-1.2,1.2-2.1,3.1-3,3.8c-0.6,0.2-2.8,0-2.8-1.5l0.4,1.9
			c-4,4.2-3.9,4.3-9.5,7.3l0.9,0.2c-0.5,1.2-1,2.3-2.2,1.7c-2.7,2.4-6.1,4.3-9.2,4.5l1,1.7c-0.6,0.5-3.4-0.7-1.8,1.4l-0.6,1.7
			c-0.8,0.6-0.5,1.9-2.1,1.9c0,0,0,0,0,0c0,0,0,0,0,0c-0.1,0-0.2,0-0.3,0c0,0,0.1,0.1,0.1,0.1c-2.3,1.1,1.2,1.2-1.5,2.3
			c-1.6-0.3,1,2.4-0.2,3l-2.8-1c-2.8,0.6-1.2,2.8-3.6,5.3c-1.9,0.5-4.1-0.6-4.7-2.8c0.7,2.8,0.7,1.6,0.1,3.9
			c-0.9-0.5-0.9-0.8-1.3-1.8c-2.1,0.4-0.1,1.4-1.1,2.3c1.1,1.6,2.9,4.1,2.7,4.5l0.8,0.1c-0.3,1.7-1,3.2-2.9,3.7l-0.6-0.7l-0.9,1.6
			l-1-0.8l-1.5,2.1l0.5,0c-0.3,0.5-1.4,2.2-2.6,2.5l-0.5-0.5c-3.7,0.7-3.6,4.5-6,7.3l-0.6-1.3c-1.9-0.1,1.3,1.8-0.3,2.3l-1.3-1.2
			c0.7,2.5-1.5,0.9-2.8,0.9l1.9,1.3l-1.5,0.9c-1.9,0.8-2.8-1.2-3.5-2.2l0.4,2.2l-1.6-1.2c1,2.3-0.9,0.4-1.2,2.4
			c-0.6-0.4-0.6-1-1.3-0.9l0.1,3.9l0.3-2l1.9,2.2c0.4,2.8-1.8,1.4-2.1,2.8l0-1.2c-0.9,1.9-1.8,1.1-3.1,1.4c0.6,0.1,1.6,0.3,1.3,1.2
			c-0.3,0.5-0.9-0.5-1.6-0.3c1.3,1.5,1,3.2-0.6,3.5c-0.2-0.2-0.4-0.4-0.4-0.6c0,0.5,0.2,0.9-0.5,1l-1.3-1.8l0.7,2.2
			c-0.9,0.1-0.6,2-1.5,0.9l0-0.6l-4.3,3.6l-1.3-1.2c1.3,2.1-2.8,1.5-0.6,3.5c-1.9-0.4-2.1,3.7-4,0.9c-2.8,2.4-1.9,6.1-6.2,8
			c-3.1-0.9-5.5,2.8-7.7,4.6c-3.1,4.8-4.9,8.1-8.2,12.7c-5.2-0.4-5.1,7-9.2,8l0.4,1.8c-3.5,0-4,4.8-8.1,5.5
			c-0.1,1.1-0.3,1.5-0.4,1.7c0.2-0.1,0.5,0,1.3,0.6c-1.2,0.2-2,2.2-3.3,0.7l0-0.3c-1.3-1.5-1.4,2.8-3.4,2.3l1.9,1.1l-1.6,1.1
			l0.1-0.6c-2.3,9-9.7,6.8-12,15.2c-0.9-2.4-0.2,1.9-2.1,0.2c-3.6-0.9-2,3-2.5,4.7c0.1,0.1,0.2,0.2,0.3,0.4l-2.1,1.7
			c-1.1-3.4,0.5,3.3-0.4,0.3c-6.7,3.3-11.6,11.6-18.2,16.7l0.8,0.3c-1.6,1.4-2.7,3.9-4.8,4.1c-2.1,0.2-1,3.9-1.3,4.5
			c-0.2,2.2-3.3,1.4-2.7,0.9c-1,1.6-0.2,4.9-2.9,5.8c-2.6-1.3-3.1,6.9-5.3,4.8l0.2,0.2c-3.9,0.8-3.5,5.6-7.4,6.7
			c0,0-0.1-0.2-0.2-0.4l1.5,11.7l8.7,5.8l10.3,1.5l10.8-13.3l11.9-7.3l22.6-24.1l0-3.3c7.5-1.7,10-10.9,17-13.8l-1.3-1.5
			c1.3-1.5,2.1-0.5,2.7-0.6c12.7-13.3,24.1-28.5,37.6-38.4c2.1-0.2,4.9-4.2,6.8-4.1c2.1-5.5,6.1-9.5,10.1-13.1l0,0.3l1.5-2.1
			c0.2,0,0.4,0.2,0.4,0.4c0.8-3.3,5.2-5.2,8.2-7.2l0,0.3c14.7-14.1,25.4-30.2,41.7-42.5c8.9-4.3,13.5-15.2,23-21
			C338.3,190.3,352.7,173.8,353.4,171.8z"/>
		<path class="st0" d="M374.2,147.2L374.2,147.2C374.8,147.9,374.6,147.5,374.2,147.2z"/>
		<path class="st0" d="M326.2,162.8c0,0,0.1-0.1,0.1-0.1l-1.2-0.5L326.2,162.8z"/>
		<path class="st0" d="M346.1,141.9c-1.1,0.7-1,0.9-0.6,1C345.8,142.7,346,142.3,346.1,141.9z"/>
		<path class="st0" d="M380.6,138.6c0.5-0.4,0-0.6-0.7-0.7c-0.4,0.6-0.7,0.9-0.7,0.9C379.6,138.7,380.2,138.7,380.6,138.6z"/>
		<path class="st0" d="M370.6,132.5l-0.3-0.6C370.1,132.3,370.3,132.4,370.6,132.5z"/>
	</g>
</g>
</svg>
