<?xml version="1.0" encoding="utf-8"?>
<!-- Generator: Adobe Illustrator 19.2.1, SVG Export Plug-In . SVG Version: 6.00 Build 0)  -->
<svg version="1.1" id="Layer_1" xmlns="http://www.w3.org/2000/svg" xmlns:xlink="http://www.w3.org/1999/xlink" x="0px" y="0px"
	 viewBox="0 0 250 250" style="enable-background:new 0 0 250 250;" xml:space="preserve">
<style type="text/css">
	.st0{fill:#1C2028;}
</style>
<path class="st0" d="M125,8.9C60.9,8.9,8.9,60.9,8.9,125c0,5.3,0.5,10.4,1.2,15.5c0.3,0.2,0.5,0.5,0.7,0.7c1.1,0.6,2.4,1.4,4.6,2
	c4.1,1.3,9.9,2,16.2,1.9c12.9,0,27.5-3,42.9-6.8c30.9-7.4,61.1-16.7,82.2-25.6c1.3-0.6,2.6-1.1,3.9-1.6c1.1-0.5,2.1-1,3.2-1.4
	c0.5-0.2,0.9-0.4,1.4-0.6c0.9-0.4,1.6-0.7,2.2-1c1.2-0.6,2-0.9,2-0.9l-5.1-10.6c11.8,4.8,23.8,9.8,37.2,10.8c-1,14-6.5,28-11.9,41.4
	l-5.1-10.6c0,0-0.8,0.4-2.2,1c-0.7,0.3-1.6,0.7-2.6,1.2c-0.5,0.2-1,0.5-1.6,0.7c-1.2,0.5-2.4,1.1-3.6,1.6c-1.4,0.6-2.9,1.2-4.3,1.8
	c-23.6,9.9-55.4,19.6-87.4,27.3c-16,3.9-33.3,7.6-50.8,7.7c-3.1,0-6.3-0.1-9.5-0.4C41.9,216,80.5,241.1,125,241.1
	c64.1,0,116.1-52,116.1-116.1S189.1,8.9,125,8.9z"/>
</svg>
