<?xml version="1.0" encoding="utf-8"?>
<!-- Generator: Adobe Illustrator 19.2.1, SVG Export Plug-In . SVG Version: 6.00 Build 0)  -->
<svg version="1.1" id="Layer_1" xmlns="http://www.w3.org/2000/svg" xmlns:xlink="http://www.w3.org/1999/xlink" x="0px" y="0px"
	 viewBox="0 0 200 50" style="enable-background:new 0 0 200 50;" xml:space="preserve">
<style type="text/css">
	.st0{fill:#231F20;}
	.st1{opacity:0.46;fill:#231F20;}
</style>
<path class="st0" d="M68,15.2c3.4,0,5.3,2,5.3,5.9c0,7.1-6,15.8-13.4,15.8c-2.5,0-4.4-1.4-4.6-1.4c-0.1,0-0.2,0.1-0.3,0.3
	c-1.3,2.6-3.7,8.4-3.7,11.9c0,0.9-0.2,1.4-1.1,1.4c-2.8,0-6.4-2.2-6.4-4.4c0-4.6,9.2-22.9,9.2-28.4c0-0.6,0.6-1,1.7-1
	c4.9,0,5.3,3.8,5.6,3.8C60.6,19,63.6,15.2,68,15.2z M65.4,21c0-0.8-0.5-1.2-1.1-1.2c-2.5,0-7.3,8-7.3,10.7c0,0.5,0.5,1,1,1
	C61.2,31.6,65.4,24.8,65.4,21z"/>
<path class="st0" d="M3.7,20.2c0-0.7,1-3,1.8-3.7c0.6-0.5,1.3-0.6,2.1-0.6c1.5-3.8,2.9-7.1,2.9-8.6c0-0.5,0.5-1,1.7-1
	c2.5,0,5.8,2.6,5.8,4.3c0,0.8-0.9,2.7-1.9,5.2c2.5,0,2.9-0.2,3.6-0.2c0.4,0,0.6,0.2,0.6,0.7c0,2.2-1.4,4.8-6.2,4.8
	c-1.5,3.2-5.2,11.9-5.2,14.2c0,0.9-0.2,1.4-1.2,1.4c-2.7,0-6.6-0.7-6.6-2.9c0-2.6,4.5-11,4.5-12.8C4.9,20.9,3.7,20.9,3.7,20.2z"/>
<path class="st0" d="M35.8,15.2c1.8,0,3,1.1,3,3c0,3.1-3.9,7.3-5.6,7.3c-0.6,0-0.8-0.2-1-0.7c-0.3-1-0.2-3.1-1.7-3.1
	c-0.7,0-1.7,0.7-2.7,2.3c-2,3.2-4.2,9.3-4.2,11.2c0,0.9-0.2,1.4-1.1,1.4c-2.8,0-6.7-0.7-6.7-2.9c0-4.3,5.5-12.8,5.5-17.6
	c0-0.6,0.5-1,1.7-1c5.3,0,5.2,3.8,5.5,3.8S31.8,15.2,35.8,15.2z"/>
<path class="st0" d="M43.4,35.2c0,0.9-0.2,1.4-1.1,1.4c-2.8,0-6.7-0.7-6.7-2.9c0-4.3,5.9-12.8,5.9-17.6c0-0.6,0.5-1,1.7-1
	c3.6,0,5.8,2.7,5.8,4.3C49,22.9,43.4,30.7,43.4,35.2z M50.3,3.4C52.4,3.4,54,4.8,54,7c0,3-2.3,5.9-5.1,5.9c-2.1,0-3.9-1.4-3.9-3.5
	C45,6.2,47.4,3.4,50.3,3.4z"/>
<path class="st1" d="M68,15.2c3.4,0,5.3,2,5.3,5.9c0,7.1-6,15.8-13.4,15.8c-2.5,0-4.4-1.4-4.6-1.4c-0.1,0-0.2,0.1-0.3,0.3
	c-1.3,2.6-3.7,8.4-3.7,11.9c0,0.9-0.2,1.4-1.1,1.4c-2.8,0-6.4-2.2-6.4-4.4c0-4.6,9.2-22.9,9.2-28.4c0-0.6,0.6-1,1.7-1
	c4.9,0,5.3,3.8,5.6,3.8C60.6,19,63.6,15.2,68,15.2z M65.4,21c0-0.8-0.5-1.2-1.1-1.2c-2.5,0-7.3,8-7.3,10.7c0,0.5,0.5,1,1,1
	C61.2,31.6,65.4,24.8,65.4,21z"/>
<path class="st0" d="M80.6,35.2c0,0.9-0.2,1.4-1.1,1.4c-2.8,0-6.7-0.7-6.7-2.9c0-4.3,11.5-27,11.5-31.7c0-0.6,0.5-1,1.7-1
	c2.5,0,5.8,2.7,5.8,4.3C91.8,8.9,80.6,30.7,80.6,35.2z"/>
<path class="st0" d="M107.3,36.6c-4.8,0-6.7-3.3-7.1-3.3c-0.7,0-3.7,3.3-9.2,3.3c-3,0-4.9-2-4.9-5.3c0-7.7,7.8-16.1,17.5-16.1
	c5.1,0,8.8,3,8.8,4.3c0,1.1-4.6,6.4-4.6,13.7c0,1.8,0.4,2,0.4,2.7C108.2,36.3,107.9,36.6,107.3,36.6z M94.7,29.8
	c0,0.6,0.4,1.1,1.1,1.1c3.2,0,8.1-9.7,8.1-11c0-0.5-0.2-0.8-0.7-0.8C99.5,19.1,94.7,26,94.7,29.8z"/>
<path class="st0" d="M127.1,20.2c-0.9,0-2.9,1.3-4.6,4c-2.1,3.3-4.5,8.4-4.5,11c0,0.9-0.2,1.4-1.1,1.4c-2.8,0-6.7-0.7-6.7-2.9
	c0-4.3,5.4-12.8,5.4-17.6c0-0.6,0.5-1,1.7-1c5.3,0,5.5,4.3,5.8,4.3c0.2,0,4.2-4.3,9.6-4.3c3,0,4.5,1.5,4.5,3.9c0,4-4.9,9.3-4.9,15.1
	c0,3,1.9,5.3,5.5,5.3c1.8,0,2.7-0.7,3.1-0.7c0.4,0,0.8,0.3,0.8,0.7c0,1.2-3.7,5.1-10.1,5.1c-5,0-9-3.3-9-8.1c0-7,5.4-13,5.4-15.4
	C128,20.6,127.7,20.2,127.1,20.2z"/>
<path class="st0" d="M158.4,33c0,2,0.4,2.2,0.4,2.9c0,0.4-0.3,0.7-0.9,0.7c-4.8,0-6.7-3.3-7.1-3.3c-0.8,0-4.3,3.3-9.2,3.3
	c-3,0-5.2-2-5.2-5.3c0-8,8.3-16.1,15.4-16.1c2.3,0,3.8,1,4,1c0.1,0,0.2-0.1,0.3-0.2c2.5-5.9,4.9-11.9,4.9-14c0-0.6,0.5-1,1.7-1
	c2.5,0,5.8,2.7,5.8,4.3c0,1.7-2.8,8.2-5.6,14.7C160.7,24.8,158.4,29.5,158.4,33z M144.8,30.2c0,0.6,0.4,1.1,1,1.1
	c3,0,8.1-9.3,8.1-10.9c0-0.7-0.4-0.9-1-0.9C149.4,19.5,144.8,26.3,144.8,30.2z"/>
<g>
	<path class="st0" d="M145.1,1.8c2,0,2.9,1,2.9,2.9c0,4-5.1,8.2-6.2,8.2c-0.4,0-0.8-0.3-0.8-0.7c0-1,1.8-2.2,1.8-4.9
		c0-1-0.6-1.5-0.6-2.6C142.1,3.1,143.2,1.8,145.1,1.8z"/>
</g>
</svg>
